<svg width="48" height="48" viewBox="0 0 48 48" fill="none" xmlns="http://www.w3.org/2000/svg">
<path d="M24 16.25V31.75M31.75 24H16.25M47.25 24C47.25 27.0532 46.6486 30.0766 45.4802 32.8974C44.3118 35.7182 42.5992 38.2813 40.4402 40.4402C38.2813 42.5992 35.7182 44.3118 32.8974 45.4802C30.0766 46.6486 27.0532 47.25 24 47.25C20.9468 47.25 17.9234 46.6486 15.1026 45.4802C12.2818 44.3118 9.71873 42.5992 7.55977 40.4402C5.4008 38.2813 3.68822 35.7182 2.5198 32.8974C1.35138 30.0766 0.75 27.0532 0.75 24C0.75 17.8337 3.19955 11.92 7.55977 7.55977C11.92 3.19955 17.8337 0.75 24 0.75C30.1663 0.75 36.08 3.19955 40.4402 7.55977C44.8004 11.92 47.25 17.8337 47.25 24Z" stroke="#F0A400" stroke-width="1.5" stroke-linecap="round" stroke-linejoin="round"/>
</svg>
