<svg width="40" height="42" viewBox="0 0 40 42" fill="none" xmlns="http://www.w3.org/2000/svg">
<g id="Group 24910">
<path id="Vector" d="M0.759002 14.168H7.19534V41.2391C7.19547 41.3891 7.24006 41.5358 7.32347 41.6605C7.40688 41.7851 7.52537 41.8823 7.66398 41.9397C7.80258 41.9971 7.95509 42.0121 8.10223 41.9829C8.24938 41.9537 8.38456 41.8815 8.49071 41.7755L10.4844 39.7818L12.4527 41.7755C12.5233 41.8466 12.6072 41.9031 12.6997 41.9416C12.7922 41.9802 12.8914 42 12.9916 42C13.0918 42 13.191 41.9802 13.2835 41.9416C13.376 41.9031 13.4599 41.8466 13.5305 41.7755L15.5241 39.7818L17.5127 41.7755C17.5833 41.8466 17.6672 41.9031 17.7597 41.9416C17.8522 41.9802 17.9514 42 18.0516 42C18.1518 42 18.251 41.9802 18.3435 41.9416C18.436 41.9031 18.5199 41.8466 18.5905 41.7755L20.5841 39.7818L22.5727 41.7755C22.6433 41.8466 22.7272 41.9031 22.8197 41.9416C22.9122 41.9802 23.0114 42 23.1116 42C23.2118 42 23.311 41.9802 23.4035 41.9416C23.496 41.9031 23.58 41.8466 23.6505 41.7755L25.6442 39.7818L27.6327 41.7755C27.7033 41.8466 27.7873 41.9031 27.8797 41.9416C27.9722 41.9802 28.0714 42 28.1716 42C28.2718 42 28.371 41.9802 28.4635 41.9416C28.556 41.9031 28.64 41.8466 28.7105 41.7755L30.7042 39.7818L32.6928 41.7755C32.7633 41.8466 32.8473 41.9031 32.9398 41.9416C33.0322 41.9802 33.1315 42 33.2317 42C33.3318 42 33.4311 41.9802 33.5235 41.9416C33.616 41.9031 33.7 41.8466 33.7705 41.7755L35.7642 39.7818L37.7528 41.7755C37.824 41.8464 37.9084 41.9025 38.0013 41.9407C38.0942 41.9789 38.1937 41.9984 38.2942 41.9981C38.3929 41.9968 38.4905 41.9779 38.5826 41.9425C38.7254 41.8878 38.8485 41.7915 38.936 41.6662C39.0235 41.5408 39.0714 41.392 39.0734 41.2391V4.35667C39.0721 3.20162 38.6127 2.09426 37.7959 1.27752C36.9792 0.460774 35.8718 0.00133919 34.7168 0H4.35667C3.20162 0.00133919 2.09426 0.460774 1.27752 1.27752C0.460774 2.09426 0.00133919 3.20162 0 4.35667V13.409C0 13.6103 0.079966 13.8034 0.222307 13.9457C0.364647 14.0881 0.557702 14.168 0.759002 14.168ZM34.7168 1.518C35.4692 1.51934 36.1905 1.81885 36.7225 2.35091C37.2546 2.88297 37.5541 3.60422 37.5554 4.35667V39.4074L36.3208 38.1728C36.2502 38.1016 36.1663 38.0452 36.0738 38.0066C35.9813 37.9681 35.8821 37.9482 35.7819 37.9482C35.6817 37.9482 35.5825 37.9681 35.49 38.0066C35.3975 38.0452 35.3136 38.1016 35.243 38.1728L33.2544 40.1664L31.2608 38.1728C31.1176 38.0303 30.9239 37.9503 30.7219 37.9503C30.5199 37.9503 30.3262 38.0303 30.183 38.1728L28.1944 40.1664L26.2008 38.1728C26.1302 38.1016 26.0463 38.0452 25.9538 38.0066C25.8613 37.9681 25.7621 37.9482 25.6619 37.9482C25.5617 37.9482 25.4625 37.9681 25.37 38.0066C25.2775 38.0452 25.1935 38.1016 25.123 38.1728L23.1344 40.1664L21.1407 38.1728C21.0702 38.1016 20.9862 38.0452 20.8937 38.0066C20.8013 37.9681 20.702 37.9482 20.6019 37.9482C20.5017 37.9482 20.4024 37.9681 20.31 38.0066C20.2175 38.0452 20.1335 38.1016 20.063 38.1728L18.0744 40.1664L16.0807 38.1728C16.0102 38.1016 15.9262 38.0452 15.8337 38.0066C15.7412 37.9681 15.642 37.9482 15.5418 37.9482C15.4416 37.9482 15.3424 37.9681 15.2499 38.0066C15.1575 38.0452 15.0735 38.1016 15.0029 38.1728L13.0144 40.1664L11.0207 38.1728C10.9502 38.1016 10.8662 38.0452 10.7737 38.0066C10.6812 37.9681 10.582 37.9482 10.4818 37.9482C10.3816 37.9482 10.2824 37.9681 10.1899 38.0066C10.0974 38.0452 10.0135 38.1016 9.94293 38.1728L8.71335 39.4074V4.35667C8.71335 4.21499 8.71335 4.07837 8.71335 3.94175C8.71335 3.89621 8.71335 3.85573 8.71335 3.81019C8.71335 3.76465 8.68805 3.62803 8.67287 3.53695C8.65769 3.44587 8.67287 3.43575 8.63745 3.38515C8.62318 3.30281 8.60289 3.22163 8.57673 3.14227C8.57673 3.08661 8.54636 3.03601 8.52612 2.98035C8.50589 2.92469 8.47552 2.82855 8.44516 2.75771C8.42631 2.70419 8.40435 2.65181 8.37939 2.60085C8.34971 2.52815 8.31592 2.45719 8.27819 2.38833C8.25426 2.33451 8.22723 2.28214 8.19723 2.23147C8.16181 2.16569 8.12132 2.09991 8.07578 2.02907L7.9847 1.88739C7.93916 1.82161 7.88856 1.75583 7.83796 1.69511C7.78736 1.63439 7.77218 1.60402 7.7317 1.55848L7.70134 1.518H34.7168ZM1.518 4.35667C1.518 3.60381 1.81708 2.88179 2.34943 2.34943C2.88178 1.81708 3.60381 1.518 4.35667 1.518C5.10953 1.518 5.83156 1.81708 6.36391 2.34943C6.89627 2.88179 7.19534 3.60381 7.19534 4.35667V12.65H1.518V4.35667Z" fill="#61CD7F"/>
<path id="Vector_2" d="M13.5104 16.2275C13.5104 16.0262 13.4305 15.8331 13.2881 15.6908C13.1458 15.5484 12.9527 15.4684 12.7514 15.4684C12.5501 15.4684 12.3571 15.5484 12.2147 15.6908C12.0724 15.8331 11.9924 16.0262 11.9924 16.2275C11.9939 17.1418 12.3124 18.0274 12.8937 18.7333C13.475 19.4391 14.2831 19.9216 15.1802 20.0984V20.999C15.1802 21.2003 15.2602 21.3934 15.4025 21.5357C15.5449 21.6781 15.7379 21.758 15.9392 21.758C16.1405 21.758 16.3336 21.6781 16.4759 21.5357C16.6183 21.3934 16.6982 21.2003 16.6982 20.999V20.0882C17.5981 19.9153 18.4096 19.4343 18.9932 18.7278C19.5768 18.0214 19.896 17.1337 19.896 16.2173C19.896 15.301 19.5768 14.4133 18.9932 13.7069C18.4096 13.0004 17.5981 12.5194 16.6982 12.3464V7.55458C17.1854 7.71448 17.6096 8.02414 17.9104 8.43939C18.2111 8.85465 18.3731 9.35428 18.3731 9.86701C18.3731 10.0683 18.4531 10.2614 18.5954 10.4037C18.7377 10.546 18.9308 10.626 19.1321 10.626C19.3334 10.626 19.5265 10.546 19.6688 10.4037C19.8111 10.2614 19.8911 10.0683 19.8911 9.86701C19.8894 8.9519 19.5701 8.06574 18.9879 7.35979C18.4056 6.65384 17.5963 6.17186 16.6982 5.9961V5.0853C16.6982 4.884 16.6183 4.69094 16.4759 4.5486C16.3336 4.40626 16.1405 4.32629 15.9392 4.32629C15.7379 4.32629 15.5449 4.40626 15.4025 4.5486C15.2602 4.69094 15.1802 4.884 15.1802 5.0853V5.9961C14.2804 6.16904 13.4689 6.65009 12.8853 7.35654C12.3017 8.06298 11.9824 8.95068 11.9824 9.86701C11.9824 10.7833 12.3017 11.671 12.8853 12.3775C13.4689 13.0839 14.2804 13.565 15.1802 13.7379V18.5196C14.6965 18.3613 14.2748 18.0547 13.9751 17.6432C13.6754 17.2318 13.5128 16.7365 13.5104 16.2275ZM16.6982 13.915C17.185 14.0702 17.6098 14.3762 17.9112 14.7887C18.2126 15.2012 18.375 15.6989 18.375 16.2097C18.375 16.7206 18.2126 17.2183 17.9112 17.6308C17.6098 18.0433 17.185 18.3492 16.6982 18.5045V13.915ZM13.5104 9.86701C13.5133 9.3575 13.6759 8.86173 13.9755 8.44959C14.2751 8.03744 14.6965 7.72971 15.1802 7.56976V12.144C14.6989 11.9865 14.279 11.6822 13.9795 11.2738C13.68 10.8654 13.516 10.3734 13.5104 9.86701Z" fill="#61CD7F"/>
<path id="Vector_3" d="M24.5969 9.52301H33.1989C33.4002 9.52301 33.5933 9.44304 33.7356 9.3007C33.878 9.15836 33.9579 8.96531 33.9579 8.76401C33.9579 8.56271 33.878 8.36965 33.7356 8.22731C33.5933 8.08497 33.4002 8.005 33.1989 8.005H24.5969C24.3956 8.005 24.2025 8.08497 24.0602 8.22731C23.9179 8.36965 23.8379 8.56271 23.8379 8.76401C23.8379 8.96531 23.9179 9.15836 24.0602 9.3007C24.2025 9.44304 24.3956 9.52301 24.5969 9.52301Z" fill="#61CD7F"/>
<path id="Vector_4" d="M24.5969 15.7469H33.1989C33.4002 15.7469 33.5933 15.6669 33.7356 15.5246C33.878 15.3822 33.9579 15.1892 33.9579 14.9879C33.9579 14.7866 33.878 14.5935 33.7356 14.4512C33.5933 14.3088 33.4002 14.2289 33.1989 14.2289H24.5969C24.3956 14.2289 24.2025 14.3088 24.0602 14.4512C23.9179 14.5935 23.8379 14.7866 23.8379 14.9879C23.8379 15.1892 23.9179 15.3822 24.0602 15.5246C24.2025 15.6669 24.3956 15.7469 24.5969 15.7469Z" fill="#61CD7F"/>
<path id="Vector_5" d="M24.5969 21.9655H33.1989C33.4002 21.9655 33.5933 21.8855 33.7356 21.7432C33.878 21.6009 33.9579 21.4078 33.9579 21.2065C33.9579 21.0052 33.878 20.8122 33.7356 20.6698C33.5933 20.5275 33.4002 20.4475 33.1989 20.4475H24.5969C24.3956 20.4475 24.2025 20.5275 24.0602 20.6698C23.9179 20.8122 23.8379 21.0052 23.8379 21.2065C23.8379 21.4078 23.9179 21.6009 24.0602 21.7432C24.2025 21.8855 24.3956 21.9655 24.5969 21.9655Z" fill="#61CD7F"/>
<path id="Vector_6" d="M12.3967 28.1893H33.1984C33.3997 28.1893 33.5928 28.1093 33.7351 27.967C33.8775 27.8246 33.9574 27.6316 33.9574 27.4303C33.9574 27.229 33.8775 27.0359 33.7351 26.8936C33.5928 26.7512 33.3997 26.6713 33.1984 26.6713H12.3967C12.1954 26.6713 12.0023 26.7512 11.86 26.8936C11.7177 27.0359 11.6377 27.229 11.6377 27.4303C11.6377 27.6316 11.7177 27.8246 11.86 27.967C12.0023 28.1093 12.1954 28.1893 12.3967 28.1893Z" fill="#61CD7F"/>
<path id="Vector_7" d="M12.3967 34.4081H33.1984C33.3997 34.4081 33.5928 34.3282 33.7351 34.1858C33.8775 34.0435 33.9574 33.8504 33.9574 33.6491C33.9574 33.4478 33.8775 33.2548 33.7351 33.1124C33.5928 32.9701 33.3997 32.8901 33.1984 32.8901H12.3967C12.1954 32.8901 12.0023 32.9701 11.86 33.1124C11.7177 33.2548 11.6377 33.4478 11.6377 33.6491C11.6377 33.8504 11.7177 34.0435 11.86 34.1858C12.0023 34.3282 12.1954 34.4081 12.3967 34.4081Z" fill="#61CD7F"/>
</g>
</svg>
