<svg width="52" height="52" viewBox="0 0 52 52" fill="none" xmlns="http://www.w3.org/2000/svg">
<path d="M45.9333 15.5996H0.866638V17.3329H45.9333V15.5996Z" fill="#0F4A8A"/>
<path d="M13.8667 10.4H12.1333C11.4438 10.4 10.7824 10.1261 10.2948 9.63848C9.80725 9.15088 9.53333 8.48956 9.53333 7.8V2.6C9.53333 1.91044 9.80725 1.24912 10.2948 0.761522C10.7824 0.273928 11.4438 0 12.1333 0H13.8667C14.5562 0 15.2175 0.273928 15.7051 0.761522C16.1927 1.24912 16.4667 1.91044 16.4667 2.6V7.8C16.4667 8.48956 16.1927 9.15088 15.7051 9.63848C15.2175 10.1261 14.5562 10.4 13.8667 10.4ZM12.1333 1.73333C11.9035 1.73333 11.683 1.82464 11.5205 1.98717C11.358 2.14971 11.2667 2.37015 11.2667 2.6V7.8C11.2667 8.02985 11.358 8.25029 11.5205 8.41283C11.683 8.57536 11.9035 8.66667 12.1333 8.66667H13.8667C14.0965 8.66667 14.317 8.57536 14.4795 8.41283C14.642 8.25029 14.7333 8.02985 14.7333 7.8V2.6C14.7333 2.37015 14.642 2.14971 14.4795 1.98717C14.317 1.82464 14.0965 1.73333 13.8667 1.73333H12.1333Z" fill="#0F4A8A"/>
<path d="M36.4 10.4H34.6667C33.9771 10.4 33.3158 10.1261 32.8282 9.63848C32.3406 9.15088 32.0667 8.48956 32.0667 7.8V2.6C32.0667 1.91044 32.3406 1.24912 32.8282 0.761522C33.3158 0.273928 33.9771 0 34.6667 0H36.4C37.0895 0 37.7509 0.273928 38.2385 0.761522C38.7261 1.24912 39 1.91044 39 2.6V7.8C39 8.48956 38.7261 9.15088 38.2385 9.63848C37.7509 10.1261 37.0895 10.4 36.4 10.4ZM34.6667 1.73333C34.4368 1.73333 34.2164 1.82464 34.0538 1.98717C33.8913 2.14971 33.8 2.37015 33.8 2.6V7.8C33.8 8.02985 33.8913 8.25029 34.0538 8.41283C34.2164 8.57536 34.4368 8.66667 34.6667 8.66667H36.4C36.6298 8.66667 36.8503 8.57536 37.0128 8.41283C37.1753 8.25029 37.2667 8.02985 37.2667 7.8V2.6C37.2667 2.37015 37.1753 2.14971 37.0128 1.98717C36.8503 1.82464 36.6298 1.73333 36.4 1.73333H34.6667Z" fill="#0F4A8A"/>
<path d="M25.1333 29.4665H21.6667C21.207 29.4665 20.7661 29.2839 20.441 28.9589C20.116 28.6338 19.9333 28.1929 19.9333 27.7332V24.2665C19.9333 23.8068 20.116 23.3659 20.441 23.0409C20.7661 22.7158 21.207 22.5332 21.6667 22.5332H25.1333C25.5931 22.5332 26.0339 22.7158 26.359 23.0409C26.6841 23.3659 26.8667 23.8068 26.8667 24.2665V27.7332C26.8667 28.1929 26.6841 28.6338 26.359 28.9589C26.0339 29.2839 25.5931 29.4665 25.1333 29.4665ZM21.6667 24.2665V27.7332H25.1333V24.2665H21.6667Z" fill="#0F4A8A"/>
<path d="M25.1333 39.8669H21.6667C21.207 39.8669 20.7661 39.6843 20.441 39.3592C20.116 39.0342 19.9333 38.5933 19.9333 38.1336V34.6669C19.9333 34.2072 20.116 33.7663 20.441 33.4413C20.7661 33.1162 21.207 32.9336 21.6667 32.9336H25.1333C25.5931 32.9336 26.0339 33.1162 26.359 33.4413C26.6841 33.7663 26.8667 34.2072 26.8667 34.6669V38.1336C26.8667 38.5933 26.6841 39.0342 26.359 39.3592C26.0339 39.6843 25.5931 39.8669 25.1333 39.8669ZM21.6667 34.6669V38.1336H25.1333V34.6669H21.6667Z" fill="#0F4A8A"/>
<path d="M12.1333 29.4665H8.66668C8.20697 29.4665 7.76609 29.2839 7.44103 28.9589C7.11597 28.6338 6.93335 28.1929 6.93335 27.7332V24.2665C6.93335 23.8068 7.11597 23.3659 7.44103 23.0409C7.76609 22.7158 8.20697 22.5332 8.66668 22.5332H12.1333C12.5931 22.5332 13.0339 22.7158 13.359 23.0409C13.6841 23.3659 13.8667 23.8068 13.8667 24.2665V27.7332C13.8667 28.1929 13.6841 28.6338 13.359 28.9589C13.0339 29.2839 12.5931 29.4665 12.1333 29.4665ZM8.66668 24.2665V27.7332H12.1333V24.2665H8.66668Z" fill="#0F4A8A"/>
<path d="M12.1333 39.8669H8.66668C8.20697 39.8669 7.76609 39.6843 7.44103 39.3592C7.11597 39.0342 6.93335 38.5933 6.93335 38.1336V34.6669C6.93335 34.2072 7.11597 33.7663 7.44103 33.4413C7.76609 33.1162 8.20697 32.9336 8.66668 32.9336H12.1333C12.5931 32.9336 13.0339 33.1162 13.359 33.4413C13.6841 33.7663 13.8667 34.2072 13.8667 34.6669V38.1336C13.8667 38.5933 13.6841 39.0342 13.359 39.3592C13.0339 39.6843 12.5931 39.8669 12.1333 39.8669ZM8.66668 34.6669V38.1336H12.1333V34.6669H8.66668Z" fill="#0F4A8A"/>
<path d="M38.1333 29.4665H34.6667C34.207 29.4665 33.7661 29.2839 33.441 28.9589C33.116 28.6338 32.9333 28.1929 32.9333 27.7332V24.2665C32.9333 23.8068 33.116 23.3659 33.441 23.0409C33.7661 22.7158 34.207 22.5332 34.6667 22.5332H38.1333C38.5931 22.5332 39.0339 22.7158 39.359 23.0409C39.6841 23.3659 39.8667 23.8068 39.8667 24.2665V27.7332C39.8667 28.1929 39.6841 28.6338 39.359 28.9589C39.0339 29.2839 38.5931 29.4665 38.1333 29.4665ZM34.6667 24.2665V27.7332H38.1333V24.2665H34.6667Z" fill="#0F4A8A"/>
<path d="M45.9333 29.6397C45.7035 29.6397 45.483 29.5484 45.3205 29.3858C45.158 29.2233 45.0667 29.0029 45.0667 28.773V8.66634C45.0667 7.97678 44.7927 7.31546 44.3051 6.82786C43.8175 6.34027 43.1562 6.06634 42.4667 6.06634H38.1333C37.9035 6.06634 37.683 5.97503 37.5205 5.8125C37.358 5.64997 37.2667 5.42953 37.2667 5.19967C37.2667 4.96982 37.358 4.74938 37.5205 4.58685C37.683 4.42432 37.9035 4.33301 38.1333 4.33301H42.4667C43.6155 4.33438 44.7169 4.79137 45.5293 5.60373C46.3416 6.41609 46.7986 7.51749 46.8 8.66634V28.773C46.8 29.0029 46.7087 29.2233 46.5462 29.3858C46.3836 29.5484 46.1632 29.6397 45.9333 29.6397Z" fill="#0F4A8A"/>
<path d="M32.9333 6.06634H15.6C15.3701 6.06634 15.1497 5.97503 14.9872 5.8125C14.8246 5.64997 14.7333 5.42953 14.7333 5.19967C14.7333 4.96982 14.8246 4.74938 14.9872 4.58685C15.1497 4.42432 15.3701 4.33301 15.6 4.33301H32.9333C33.1632 4.33301 33.3836 4.42432 33.5462 4.58685C33.7087 4.74938 33.8 4.96982 33.8 5.19967C33.8 5.42953 33.7087 5.64997 33.5462 5.8125C33.3836 5.97503 33.1632 6.06634 32.9333 6.06634Z" fill="#0F4A8A"/>
<path d="M29.2561 47.6663H4.33333C3.18448 47.665 2.08308 47.208 1.27072 46.3956C0.458364 45.5833 0.00137614 44.4819 0 43.333V8.66634C0.00137614 7.51749 0.458364 6.41609 1.27072 5.60373C2.08308 4.79137 3.18448 4.33438 4.33333 4.33301H10.4C10.6299 4.33301 10.8503 4.42432 11.0128 4.58685C11.1754 4.74938 11.2667 4.96982 11.2667 5.19967C11.2667 5.42953 11.1754 5.64997 11.0128 5.8125C10.8503 5.97503 10.6299 6.06634 10.4 6.06634H4.33333C3.64377 6.06634 2.98245 6.34027 2.49486 6.82786C2.00726 7.31546 1.73333 7.97678 1.73333 8.66634V43.333C1.73333 44.0226 2.00726 44.6839 2.49486 45.1715C2.98245 45.6591 3.64377 45.933 4.33333 45.933H29.2561C29.4859 45.933 29.7064 46.0243 29.8689 46.1868C30.0314 46.3494 30.1227 46.5698 30.1227 46.7997C30.1227 47.0295 30.0314 47.25 29.8689 47.4125C29.7064 47.575 29.4859 47.6663 29.2561 47.6663Z" fill="#0F4A8A"/>
<path d="M40.3 45.0672C40.0702 45.0672 39.8498 44.9758 39.6873 44.8133L37.0873 42.2133C36.9294 42.0498 36.8421 41.8309 36.844 41.6037C36.846 41.3764 36.9371 41.1591 37.0978 40.9984C37.2585 40.8377 37.4759 40.7465 37.7031 40.7446C37.9304 40.7426 38.1493 40.8299 38.3127 40.9878L40.3 42.9751L44.8873 38.3878C45.0507 38.2299 45.2697 38.1426 45.4969 38.1446C45.7241 38.1465 45.9415 38.2377 46.1022 38.3984C46.2629 38.5591 46.354 38.7764 46.356 39.0037C46.358 39.2309 46.2706 39.4498 46.1127 39.6133L40.9127 44.8133C40.7503 44.9758 40.5298 45.0672 40.3 45.0672Z" fill="#0F4A8A"/>
<path d="M41.6 52.0002C39.5431 52.0002 37.5324 51.3903 35.8221 50.2475C34.1118 49.1047 32.7788 47.4805 31.9917 45.5801C31.2045 43.6798 30.9986 41.5887 31.3998 39.5713C31.8011 37.5539 32.7916 35.7008 34.2461 34.2463C35.7006 32.7918 37.5537 31.8013 39.5711 31.4C41.5885 30.9987 43.6796 31.2047 45.5799 31.9919C47.4803 32.779 49.1045 34.112 50.2473 35.8223C51.3901 37.5325 52 39.5433 52 41.6002C51.997 44.3575 50.9004 47.0011 48.9506 48.9508C47.0009 50.9005 44.3574 51.9972 41.6 52.0002ZM41.6 32.9335C39.8859 32.9335 38.2103 33.4418 36.7851 34.3941C35.3598 35.3464 34.249 36.7 33.5931 38.2836C32.9371 39.8672 32.7655 41.6098 33.0999 43.291C33.4343 44.9722 34.2597 46.5164 35.4718 47.7285C36.6838 48.9405 38.2281 49.7659 39.9092 50.1003C41.5904 50.4347 43.333 50.2631 44.9166 49.6072C46.5002 48.9512 47.8538 47.8404 48.8061 46.4151C49.7584 44.9899 50.2667 43.3143 50.2667 41.6002C50.2642 39.3024 49.3503 37.0995 47.7255 35.4747C46.1007 33.85 43.8978 32.9361 41.6 32.9335Z" fill="#0F4A8A"/>
</svg>
