<svg width="42" height="42" viewBox="0 0 42 42" fill="none" xmlns="http://www.w3.org/2000/svg">
<rect x="0.5" y="0.5" width="41" height="41" rx="3.5" fill="white" stroke="#EEEEEE"/>
<path d="M11.25 15.75C11.25 24.034 17.966 30.75 26.25 30.75H28.5C29.0967 30.75 29.669 30.5129 30.091 30.091C30.5129 29.669 30.75 29.0967 30.75 28.5V27.128C30.75 26.612 30.399 26.162 29.898 26.037L25.475 24.931C25.035 24.821 24.573 24.986 24.302 25.348L23.332 26.641C23.05 27.017 22.563 27.183 22.122 27.021C20.4849 26.4191 18.9982 25.4686 17.7648 24.2352C16.5314 23.0018 15.5809 21.5151 14.979 19.878C14.817 19.437 14.983 18.95 15.359 18.668L16.652 17.698C17.015 17.427 17.179 16.964 17.069 16.525L15.963 12.102C15.9021 11.8587 15.7617 11.6427 15.5641 11.4883C15.3664 11.334 15.1228 11.2501 14.872 11.25H13.5C12.9033 11.25 12.331 11.4871 11.909 11.909C11.4871 12.331 11.25 12.9033 11.25 13.5V15.75Z" stroke="#333333" stroke-width="1.5" stroke-linecap="round" stroke-linejoin="round"/>
</svg>
