<svg width="42" height="42" viewBox="0 0 42 42" fill="none" xmlns="http://www.w3.org/2000/svg">
<rect x="0.5" y="0.5" width="41" height="41" rx="3.5" fill="white" stroke="#EEEEEE"/>
<path d="M10.9204 27.6969C10.4206 27.6444 9.97003 27.4177 9.63107 27.0793C9.24109 26.6911 9 26.1549 9 25.565V22.3766C9 21.787 9.24139 21.2505 9.62958 20.8623C9.96794 20.5239 10.4191 20.2972 10.9201 20.2444C11.0018 19.9699 11.1513 19.7237 11.3488 19.5262C11.5377 19.3373 11.7704 19.1926 12.0303 19.1087V17.4533C12.0303 15.1284 12.9815 13.0147 14.5134 11.4828C16.0453 9.95093 18.1593 9 20.4843 9C22.8089 9 24.9229 9.95123 26.4548 11.4831C27.9867 13.015 28.9379 15.1287 28.9379 17.4533V19.109C29.1835 19.1887 29.4048 19.3233 29.5881 19.4978L29.6194 19.5265C29.8169 19.724 29.9664 19.9699 30.0482 20.2444C30.5491 20.2972 31.0003 20.5239 31.3386 20.8623C31.7268 21.2505 31.9682 21.787 31.9682 22.3766V25.565C31.9682 26.1549 31.7268 26.6911 31.3386 27.0793C31.0003 27.4177 30.5488 27.6444 30.0479 27.6969C29.97 27.9568 29.8309 28.1913 29.6477 28.3835L29.6191 28.4148C29.4242 28.6097 29.1817 28.7577 28.9113 28.8403C28.8561 29.4735 28.5912 30.0502 28.183 30.4972C27.7241 31.0015 27.0805 31.338 26.3495 31.4034L21.8437 31.8086C21.77 32.0858 21.6241 32.334 21.4274 32.5307C21.1377 32.8204 20.7367 33 20.2945 33C19.8526 33 19.4516 32.8204 19.1618 32.5307L19.1326 32.4987C18.8602 32.2111 18.6925 31.8232 18.6925 31.3977C18.6925 30.9558 18.8721 30.5548 19.1618 30.2651C19.4516 29.9753 19.8526 29.7957 20.2945 29.7957C20.7352 29.7957 21.1353 29.9753 21.4256 30.2651C21.5787 30.4172 21.7013 30.6001 21.7828 30.8036L26.2623 30.4008C26.7296 30.3591 27.1425 30.1424 27.4379 29.819C27.6832 29.5525 27.847 29.2109 27.896 28.832C27.6364 28.7481 27.4039 28.6034 27.2154 28.4148C26.9074 28.1069 26.7159 27.6811 26.7159 27.2133V20.728C26.7159 20.2599 26.9071 19.8341 27.2151 19.5262C27.4123 19.3304 27.6558 19.1818 27.927 19.0995V17.4533C27.927 15.4071 27.0894 13.5464 25.7405 12.1974C24.3915 10.8484 22.5305 10.0109 20.4843 10.0109C18.4377 10.0109 16.5767 10.8482 15.2277 12.1971C13.8788 13.5461 13.0412 15.4068 13.0412 17.4533V19.0995C13.3133 19.1818 13.5568 19.3301 13.7529 19.5262L13.7818 19.5578C14.0727 19.8633 14.252 20.2763 14.252 20.728V27.2133C14.252 27.6811 14.0608 28.1069 13.7529 28.4148C13.4449 28.7228 13.0191 28.914 12.5513 28.914C12.0831 28.914 11.6571 28.7228 11.3491 28.4148L11.3205 28.3835C11.1373 28.1913 10.9982 27.9568 10.9204 27.6969ZM20.7134 30.9788C20.6072 30.8726 20.4586 30.8066 20.2945 30.8066C20.131 30.8066 19.9827 30.8729 19.8762 30.9794C19.7696 31.0859 19.7034 31.2342 19.7034 31.3977C19.7034 31.5529 19.7622 31.694 19.858 31.799L19.8762 31.8163C19.9827 31.9229 20.131 31.9891 20.2945 31.9891C20.4583 31.9891 20.6066 31.9229 20.7131 31.8163C20.8196 31.7098 20.8859 31.5615 20.8859 31.3977C20.8859 31.2342 20.8196 31.0859 20.7134 30.9788ZM10.3433 26.3656C10.4811 26.504 10.6554 26.6067 10.8496 26.6589V21.2827C10.656 21.3352 10.482 21.4385 10.3439 21.5766C10.1386 21.7819 10.0109 22.0654 10.0109 22.3766V25.565C10.0109 25.8765 10.1383 26.1597 10.3433 26.3656ZM30.1186 26.6586C30.3125 26.6061 30.4862 26.5031 30.6243 26.365C30.8296 26.1597 30.9573 25.8765 30.9573 25.565V22.3766C30.9573 22.0654 30.8296 21.7819 30.6243 21.5766C30.4862 21.4385 30.3125 21.3352 30.1186 21.2827V26.6586ZM13.0385 20.2405C12.9138 20.1158 12.7405 20.0379 12.5504 20.0379C12.3606 20.0379 12.1879 20.1158 12.0631 20.2405C11.9384 20.3652 11.8605 20.5383 11.8605 20.728V27.2133C11.8605 27.3941 11.9301 27.5591 12.0432 27.6814L12.0634 27.7005C12.1882 27.8252 12.3615 27.9031 12.5513 27.9031C12.7408 27.9031 12.9138 27.8252 13.0385 27.7005C13.1633 27.5758 13.2411 27.4027 13.2411 27.2133V20.728C13.2411 20.5466 13.1716 20.3816 13.0588 20.2596L13.0385 20.2405ZM28.4178 20.0379C28.2266 20.0379 28.0532 20.1155 27.9285 20.2396C27.8046 20.3652 27.7268 20.5383 27.7268 20.728V27.2133C27.7268 27.4027 27.8046 27.5755 27.9297 27.7005C28.0544 27.8252 28.2275 27.9031 28.4169 27.9031C28.6067 27.9031 28.78 27.8252 28.9048 27.7005L28.9251 27.6814C29.0381 27.5591 29.1077 27.3941 29.1077 27.2133V20.728C29.1077 20.5383 29.0298 20.3655 28.9051 20.2408L28.886 20.2205C28.7636 20.1074 28.5986 20.0379 28.4178 20.0379Z" fill="#333333"/>
</svg>
