<svg width="42" height="42" viewBox="0 0 42 42" fill="none" xmlns="http://www.w3.org/2000/svg">
<rect x="0.5" y="0.5" width="41" height="41" rx="3.5" fill="white" stroke="#EEEEEE"/>
<path d="M22 27.5C17.03 27.5 13 23.806 13 19.25C13 14.694 17.03 11 22 11C26.97 11 31 14.694 31 19.25C31 21.354 30.141 23.273 28.727 24.73C28.295 25.177 27.987 25.77 28.141 26.371C28.3096 27.0282 28.6252 27.6385 29.064 28.156C28.7129 28.2191 28.3568 28.2505 28 28.25C26.718 28.25 25.53 27.848 24.555 27.163C23.745 27.383 22.887 27.5 22 27.5Z" fill="white" stroke="#333333" stroke-width="1.5" stroke-linecap="round" stroke-linejoin="round"/>
<path d="M14.5 30.5C16.985 30.5 19 28.653 19 26.375C19 24.097 16.985 22.25 14.5 22.25C12.015 22.25 10 24.097 10 26.375C10 27.427 10.4295 28.3865 11.1365 29.115C11.3525 29.3385 11.5065 29.635 11.4295 29.9355C11.3452 30.2641 11.1874 30.5693 10.968 30.828C11.1436 30.8595 11.3216 30.8753 11.5 30.875C12.141 30.875 12.735 30.674 13.2225 30.3315C13.6275 30.4415 14.0565 30.5 14.5 30.5Z" fill="white" stroke="#333333" stroke-width="1.2" stroke-linecap="round" stroke-linejoin="round"/>
</svg>
