<svg width="52" height="52" viewBox="0 0 52 52" fill="none" xmlns="http://www.w3.org/2000/svg">
<path d="M50.1381 27.1016V24.145C50.4054 11.1692 38.9737 -0.263262 25.9974 0.00461511C13.0224 -0.261451 1.58846 11.1673 1.85719 24.1452C1.85697 24.145 1.85697 27.1016 1.85697 27.1016C0.778534 27.4861 0 28.5071 0 29.7159V39.0008C0 40.5368 1.24946 41.7862 2.78545 41.7862H6.49939C6.6579 46.6909 13.768 46.6984 13.9273 41.7861C13.9273 41.7862 13.9273 26.9305 13.9273 26.9305C13.7782 22.027 6.65195 22.0211 6.49939 26.9305C6.49939 26.9305 3.71394 26.9305 3.71394 26.9305V24.145C3.71394 18.5031 5.799 13.1838 9.60015 9.06028L10.4663 9.92671C12.0703 11.5307 14.5456 11.7687 16.3491 10.4898C21.9303 6.4296 30.0649 6.42909 35.646 10.4898C37.4693 11.7774 39.9349 11.5196 41.5288 9.92671L42.395 9.06033C46.1961 13.1842 48.2812 18.5035 48.2812 24.145V26.9305H45.4957C45.4957 24.8826 43.8301 23.2165 41.7818 23.2165C39.7335 23.2165 38.0678 24.8826 38.0678 26.9305V41.7862C38.2153 46.6834 45.3409 46.7017 45.4957 41.7861C45.4957 41.7862 48.2812 41.7862 48.2812 41.7862V45.0858C48.2812 46.969 46.8712 48.5549 45.0006 48.7743L33.3166 50.1489C32.808 50.2088 32.4434 50.6703 32.5033 51.1799C32.5608 51.6911 33.0345 52.0548 33.5342 51.9932L45.2174 50.6186C48.0228 50.2895 50.1381 47.9102 50.1381 45.0858V41.6151C51.2166 41.2306 51.9951 40.2096 51.9951 39.0008V29.7159C51.9951 28.5071 51.2166 27.4861 50.1381 27.1016ZM7.42786 28.7875C7.94106 28.7875 8.35635 28.3722 8.35635 27.859V26.9305C8.41783 24.4864 12.0063 24.4788 12.0703 26.9305C12.0703 26.9305 12.0703 41.7862 12.0703 41.7862C12.0064 44.2305 8.42203 44.2382 8.35635 41.7862C8.35635 41.7862 8.35635 32.5014 8.35635 32.5014C8.33623 31.2814 6.5195 31.2805 6.49938 32.5014V39.9293H2.78544C2.27314 39.9293 1.85696 39.5131 1.85696 39.0008V29.7159C1.85696 29.2036 2.27314 28.7875 2.78544 28.7875H7.42786ZM40.2159 8.61378C39.2692 9.56131 37.7668 9.7159 36.7195 8.97465C30.5131 4.4602 21.4819 4.46025 15.2756 8.97471C14.231 9.7159 12.7268 9.5613 11.7792 8.61378L10.9132 7.7474C19.0463 -0.0499609 32.949 -0.0499052 41.082 7.74762C41.082 7.7474 40.2159 8.61378 40.2159 8.61378ZM50.1381 39.0008C50.1381 39.5131 49.7219 39.9293 49.2096 39.9293H44.5672C44.054 39.9293 43.6387 40.3445 43.6387 40.8577V41.7862C43.577 44.2302 39.9891 44.2378 39.9248 41.7862C39.9248 41.7862 39.9248 26.9305 39.9248 26.9305C39.9248 25.9063 40.7581 25.0735 41.7818 25.0735C42.8055 25.0735 43.6387 25.9063 43.6387 26.9305V36.2153C43.6589 37.4353 45.4756 37.4362 45.4957 36.2153C45.4957 36.2153 45.4957 28.7875 45.4957 28.7875H49.2096C49.7219 28.7875 50.1381 29.2036 50.1381 29.7159V39.0008Z" fill="#E54335"/>
</svg>
