<svg width="42" height="42" viewBox="0 0 42 42" fill="none" xmlns="http://www.w3.org/2000/svg">
<rect x="0.5" y="0.5" width="41" height="41" rx="3.5" fill="white" stroke="#EEEEEE"/>
<path d="M24 19.5C24 20.2956 23.6839 21.0587 23.1213 21.6213C22.5587 22.1839 21.7956 22.5 21 22.5C20.2044 22.5 19.4413 22.1839 18.8787 21.6213C18.3161 21.0587 18 20.2956 18 19.5C18 18.7044 18.3161 17.9413 18.8787 17.3787C19.4413 16.8161 20.2044 16.5 21 16.5C21.7956 16.5 22.5587 16.8161 23.1213 17.3787C23.6839 17.9413 24 18.7044 24 19.5Z" stroke="#333333" stroke-width="1.5" stroke-linecap="round" stroke-linejoin="round"/>
<path d="M28.5 19.5C28.5 26.642 21 30.75 21 30.75C21 30.75 13.5 26.642 13.5 19.5C13.5 17.5109 14.2902 15.6032 15.6967 14.1967C17.1032 12.7902 19.0109 12 21 12C22.9891 12 24.8968 12.7902 26.3033 14.1967C27.7098 15.6032 28.5 17.5109 28.5 19.5Z" stroke="#333333" stroke-width="1.5" stroke-linecap="round" stroke-linejoin="round"/>
</svg>
