<svg width="34" height="20" viewBox="0 0 34 20" fill="none" xmlns="http://www.w3.org/2000/svg">
<path fill-rule="evenodd" clip-rule="evenodd" d="M10.1012 0.44391C10.1012 0.326178 10.1479 0.213268 10.2312 0.130019C10.3144 0.0467693 10.4274 0 10.5451 0H31.9157C32.2812 0.000783634 32.6316 0.14653 32.8898 0.405271C33.1481 0.664011 33.2932 1.01462 33.2933 1.38019V18.6224C33.2925 18.9875 33.1471 19.3375 32.8889 19.5956C32.6307 19.8538 32.2808 19.9992 31.9157 20H10.5429C10.4846 20 10.4268 19.9885 10.373 19.9662C10.3191 19.9439 10.2702 19.9112 10.229 19.87C10.1878 19.8288 10.1551 19.7798 10.1327 19.726C10.1104 19.6721 10.099 19.6144 10.099 19.5561C10.099 19.1351 9.93172 18.7314 9.63403 18.4337C9.33635 18.136 8.9326 17.9687 8.51161 17.9687C8.09062 17.9687 7.68687 18.136 7.38918 18.4337C7.0915 18.7314 6.92426 19.1351 6.92426 19.5561C6.92426 19.6738 6.87749 19.7867 6.79424 19.87C6.71099 19.9532 6.59808 20 6.48035 20H1.3776C1.01216 19.9992 0.661936 19.8536 0.403702 19.595C0.145468 19.3364 0.000292925 18.986 0 18.6206V1.38019C0.000781849 1.01507 0.146173 0.665124 0.404354 0.406943C0.662535 0.148762 1.01248 0.00337131 1.3776 0.00258946H6.48257C6.6003 0.00258946 6.71321 0.0493588 6.79646 0.132608C6.87971 0.215857 6.92648 0.328768 6.92648 0.4465C6.92648 0.867491 7.09372 1.27124 7.3914 1.56892C7.68909 1.86661 8.09284 2.03385 8.51383 2.03385C8.93482 2.03385 9.33857 1.86661 9.63625 1.56892C9.93394 1.27124 10.1012 0.867491 10.1012 0.4465V0.44391ZM8.07066 5.23185C8.07066 5.34958 8.11743 5.46249 8.20068 5.54574C8.28392 5.62899 8.39683 5.67576 8.51457 5.67576C8.6323 5.67576 8.74521 5.62899 8.82846 5.54574C8.91171 5.46249 8.95848 5.34958 8.95848 5.23185V4.34403C8.95848 4.2263 8.91171 4.11339 8.82846 4.03014C8.74521 3.94689 8.6323 3.90012 8.51457 3.90012C8.39683 3.90012 8.28392 3.94689 8.20068 4.03014C8.11743 4.11339 8.07066 4.2263 8.07066 4.34403V5.23185ZM8.07066 8.77647C8.07066 8.89421 8.11743 9.00712 8.20068 9.09036C8.28392 9.17361 8.39683 9.22038 8.51457 9.22038C8.6323 9.22038 8.74521 9.17361 8.82846 9.09036C8.91171 9.00712 8.95848 8.89421 8.95848 8.77647V7.89087C8.95848 7.77314 8.91171 7.66023 8.82846 7.57698C8.74521 7.49373 8.6323 7.44696 8.51457 7.44696C8.39683 7.44696 8.28392 7.49373 8.20068 7.57698C8.11743 7.66023 8.07066 7.77314 8.07066 7.89087V8.77869V8.77647ZM8.07066 12.3207C8.07066 12.4385 8.11743 12.5514 8.20068 12.6346C8.28392 12.7179 8.39683 12.7646 8.51457 12.7646C8.6323 12.7646 8.74521 12.7179 8.82846 12.6346C8.91171 12.5514 8.95848 12.4385 8.95848 12.3207V11.4348C8.95848 11.317 8.91171 11.2041 8.82846 11.1209C8.74521 11.0376 8.6323 10.9908 8.51457 10.9908C8.39683 10.9908 8.28392 11.0376 8.20068 11.1209C8.11743 11.2041 8.07066 11.317 8.07066 11.4348V12.3207ZM8.07066 15.8653C8.07066 15.9831 8.11743 16.096 8.20068 16.1792C8.28392 16.2625 8.39683 16.3093 8.51457 16.3093C8.6323 16.3093 8.74521 16.2625 8.82846 16.1792C8.91171 16.096 8.95848 15.9831 8.95848 15.8653V14.9775C8.95848 14.8598 8.91171 14.7469 8.82846 14.6636C8.74521 14.5804 8.6323 14.5336 8.51457 14.5336C8.39683 14.5336 8.28392 14.5804 8.20068 14.6636C8.11743 14.7469 8.07066 14.8598 8.07066 14.9775V15.8653ZM17.6454 19.1122L19.1692 17.5885L19.1436 17.5459C18.6858 16.7963 18.3476 15.98 18.1411 15.1262L18.13 15.08H16.5172C16.3822 15.0798 16.2515 15.0328 16.1472 14.9472C16.1306 14.9348 16.1149 14.9212 16.1003 14.9065C15.9893 14.7958 15.9268 14.6456 15.9264 14.4889V11.7703C15.9265 11.6927 15.9419 11.6159 15.9717 11.5443C16.0016 11.4727 16.0452 11.4077 16.1003 11.353C16.2106 11.242 16.3603 11.1793 16.5168 11.1784H18.1297L18.1408 11.1322C18.3474 10.2785 18.6856 9.46217 19.1433 8.71248L19.168 8.67178L18.0279 7.53205C17.9251 7.42923 17.8639 7.29194 17.8564 7.1467C17.8488 7.00146 17.8953 6.85855 17.9869 6.74558C17.9993 6.72865 18.0131 6.7127 18.0279 6.69786L19.9515 4.77425C20.0622 4.66368 20.2122 4.60156 20.3686 4.60156C20.5251 4.60156 20.6751 4.66368 20.7857 4.77425L21.9262 5.91473L21.9673 5.88958C22.717 5.43212 23.5333 5.09404 24.3869 4.88745L24.4332 4.87635V3.26348C24.4332 3.1065 24.4955 2.95596 24.6065 2.84496C24.7175 2.73396 24.8681 2.6716 25.0251 2.6716H27.7444C27.9014 2.6716 28.0519 2.73396 28.1629 2.84496C28.2739 2.95596 28.3363 3.1065 28.3363 3.26348V4.87635L28.3825 4.88745C29.2362 5.09378 30.0526 5.43188 30.8022 5.88958L30.8429 5.91473L32.4066 4.35106V1.38019C32.4057 1.25007 32.3536 1.12553 32.2616 1.03352C32.1696 0.941509 32.045 0.889433 31.9149 0.88856H10.9476C10.8439 1.45847 10.5435 1.97391 10.0987 2.34504C9.65398 2.71618 9.09309 2.91946 8.51383 2.91946C7.93457 2.91946 7.37368 2.71618 6.92893 2.34504C6.48418 1.97391 6.18378 1.45847 6.08009 0.88856H1.3776C1.2478 0.889916 1.12373 0.942205 1.03212 1.03416C0.940508 1.12612 0.888686 1.25039 0.88782 1.38019V18.6224C0.888693 18.7525 0.940769 18.8771 1.03278 18.9691C1.12479 19.0611 1.24933 19.1132 1.37945 19.114H6.08009C6.18378 18.5441 6.48418 18.0287 6.92893 17.6575C7.37368 17.2864 7.93457 17.0831 8.51383 17.0831C9.09309 17.0831 9.65398 17.2864 10.0987 17.6575C10.5435 18.0287 10.8439 18.5441 10.9476 19.114L17.6454 19.1122ZM32.408 17.7768L29.0839 14.4711C29.0243 14.4124 28.9825 14.338 28.9635 14.2566C28.9445 14.1751 28.9491 14.0899 28.9766 14.0109C29.1523 13.5108 29.1847 12.9715 29.0702 12.4539C28.9549 11.9399 28.6985 11.4683 28.3299 11.0921C27.9613 10.7159 27.495 10.45 26.9834 10.3242C26.7215 10.2607 26.4518 10.2347 26.1826 10.2469L27.6822 11.778C27.7367 11.8332 27.7756 11.9018 27.7951 11.9768C27.8146 12.0518 27.8139 12.1306 27.7932 12.2053L27.3449 13.8097C27.3242 13.8847 27.284 13.9528 27.2285 14.0073C27.1729 14.0617 27.104 14.1005 27.0286 14.1197L25.4412 14.5266C25.3634 14.5512 25.2802 14.5539 25.2009 14.5343C25.1216 14.5148 25.0492 14.4737 24.9918 14.4156L23.4902 12.8849C23.4594 13.3469 23.5426 13.8094 23.7326 14.2317C23.9225 14.654 24.2132 15.0231 24.5793 15.3067C24.9454 15.5902 25.3755 15.7794 25.8319 15.8577C26.2883 15.9359 26.7569 15.9008 27.1965 15.7555C27.2738 15.7304 27.3566 15.7272 27.4356 15.7461C27.5146 15.765 27.5869 15.8054 27.6445 15.8628L30.9135 19.1137H31.9157C32.0458 19.1128 32.1703 19.0607 32.2623 18.9687C32.3543 18.8767 32.4064 18.7521 32.4073 18.622V17.7768H32.408ZM28.0385 17.4982L27.2065 16.671C26.5566 16.8325 25.875 16.8151 25.2342 16.6206C24.5933 16.4262 24.017 16.0619 23.5663 15.5665C23.1157 15.0711 22.8075 14.463 22.6744 13.8067C22.5413 13.1503 22.5883 12.4702 22.8103 11.8383C22.8494 11.7281 22.9304 11.6377 23.0358 11.5868C23.1412 11.536 23.2623 11.5288 23.373 11.5668C23.437 11.5889 23.495 11.6256 23.5424 11.6741L25.4442 13.6151L26.5606 13.3288L26.871 12.216L24.9711 10.2765C24.9183 10.2229 24.8801 10.1566 24.8601 10.0841C24.8401 10.0115 24.8389 9.93502 24.8568 9.8619C24.8747 9.78878 24.9109 9.72144 24.9621 9.66627C25.0133 9.6111 25.0778 9.56992 25.1494 9.54666C25.7848 9.33753 26.4651 9.30409 27.118 9.44989C27.7709 9.59568 28.3723 9.91529 28.8585 10.3749C29.3446 10.8345 29.6975 11.417 29.8797 12.0607C30.062 12.7044 30.0668 13.3854 29.8937 14.0316L30.7245 14.858C31.0943 13.93 31.1568 12.9077 30.9027 11.9416C30.6485 10.9754 30.0912 10.1162 29.3126 9.49016C28.534 8.86417 27.5751 8.50439 26.5769 8.46369C25.5787 8.423 24.5937 8.70352 23.7668 9.26406C22.9398 9.82459 22.3144 10.6356 21.9824 11.5779C21.6505 12.5202 21.6295 13.5441 21.9226 14.4992C22.2156 15.4543 22.8073 16.2902 23.6106 16.8841C24.414 17.4781 25.3866 17.7987 26.3857 17.7989C26.7959 17.7994 27.2045 17.7459 27.6009 17.6399C27.7488 17.5999 27.8945 17.5529 28.0377 17.4989L28.0385 17.4982ZM29.661 19.1122L28.7162 18.1722C28.4307 18.3049 28.1343 18.4125 27.8302 18.494C26.6495 18.8117 25.3969 18.7307 24.2669 18.2636C23.1369 17.7965 22.1927 16.9694 21.5809 15.9108C20.9691 14.8521 20.7239 13.6211 20.8834 12.4088C21.0428 11.1965 21.598 10.0708 22.4628 9.20636C23.3276 8.34193 24.4535 7.78715 25.6659 7.62815C26.8782 7.46915 28.1091 7.71482 29.1675 8.32702C30.226 8.93922 31.0527 9.88371 31.5194 11.0139C31.986 12.144 32.0666 13.3967 31.7485 14.5773C31.6607 14.9036 31.5429 15.2211 31.3967 15.5258L32.4073 16.5308V5.60289L31.2235 6.78665C31.1494 6.86053 31.0515 6.90584 30.9472 6.91457C30.8429 6.9233 30.7389 6.8949 30.6535 6.83437L30.3416 6.64386C29.671 6.23293 28.94 5.92973 28.1753 5.74531L27.7899 5.65209C27.6936 5.62878 27.608 5.5738 27.5468 5.49598C27.4855 5.41816 27.4522 5.32201 27.4521 5.22297V3.55831H25.3206V5.22297C25.3205 5.32869 25.2826 5.43088 25.2139 5.51117C25.1451 5.59146 25.05 5.64458 24.9455 5.66096L24.596 5.74531C23.8312 5.9298 23.1 6.23286 22.4289 6.64349L22.0905 6.85027C22.0059 6.90201 21.9063 6.92376 21.8079 6.91202C21.7094 6.90027 21.6178 6.85572 21.5478 6.78554L20.3699 5.60769L18.8632 7.11403L20.0411 8.29187C20.115 8.36601 20.1603 8.46388 20.169 8.56819C20.1777 8.67249 20.1493 8.77653 20.0888 8.86193L19.8983 9.17377C19.4875 9.84479 19.1843 10.576 18.9997 11.3408L18.9065 11.7263C18.8828 11.8223 18.8278 11.9077 18.75 11.9689C18.6723 12.0301 18.5763 12.0636 18.4774 12.064H16.8127V14.194H18.4774C18.5831 14.1942 18.6853 14.232 18.7656 14.3008C18.8459 14.3695 18.899 14.4647 18.9154 14.5691L18.9997 14.9187C19.1844 15.6834 19.4874 16.4146 19.8979 17.0857L20.1051 17.4238C20.1564 17.5086 20.178 17.6081 20.1663 17.7065C20.1545 17.8049 20.1102 17.8966 20.0403 17.9669L18.8969 19.11L29.661 19.1122Z" fill="#0F4A8A"/>
</svg>
