<svg width="20" height="20" viewBox="0 0 20 20" fill="none" xmlns="http://www.w3.org/2000/svg">
<path d="M19.2839 10.4237V9.28655C19.3867 4.29583 14.9899 -0.101255 9.99899 0.00177504C5.00861 -0.100558 0.610946 4.29511 0.714304 9.28661C0.714218 9.28655 0.714218 10.4237 0.714218 10.4237C0.299436 10.5716 0 10.9643 0 11.4292V15.0003C0 15.5911 0.480562 16.0716 1.07133 16.0716H2.49976C2.56073 17.958 5.29539 17.9609 5.35664 16.0716C5.35664 16.0716 5.35664 10.3579 5.35664 10.3579C5.29929 8.47191 2.55844 8.46965 2.49976 10.3579C2.49976 10.3579 1.42844 10.3579 1.42844 10.3579V9.28655C1.42844 7.11656 2.23039 5.07068 3.69237 3.48472L4.0255 3.81797C4.64242 4.43489 5.59448 4.52643 6.28812 4.03453C8.43472 2.47292 11.5634 2.47273 13.71 4.03456C14.4113 4.52979 15.3596 4.43061 15.9726 3.81797L16.3057 3.48474C17.7677 5.07083 18.5697 7.11671 18.5697 9.28655V10.3579H17.4984C17.4984 9.57024 16.8577 8.92944 16.0699 8.92944C15.2821 8.92944 14.6415 9.57024 14.6415 10.3579V16.0716C14.6982 17.9552 17.4388 17.9622 17.4984 16.0716C17.4984 16.0716 18.5697 16.0716 18.5697 16.0716V17.3407C18.5697 18.065 18.0274 18.675 17.3079 18.7594L12.8141 19.288C12.6184 19.3111 12.4782 19.4886 12.5013 19.6846C12.5234 19.8812 12.7056 20.0211 12.8978 19.9974L17.3913 19.4687C18.4703 19.3421 19.2839 18.427 19.2839 17.3407V16.0058C19.6987 15.8579 19.9981 15.4652 19.9981 15.0003V11.4292C19.9981 10.9643 19.6987 10.5716 19.2839 10.4237ZM2.85687 11.0721C3.05426 11.0721 3.21398 10.9124 3.21398 10.715V10.3579C3.23763 9.41785 4.61781 9.41493 4.64242 10.3579C4.64242 10.3579 4.64242 16.0716 4.64242 16.0716C4.61785 17.0117 3.23924 17.0147 3.21398 16.0716C3.21398 16.0716 3.21398 12.5005 3.21398 12.5005C3.20624 12.0313 2.5075 12.031 2.49976 12.5005V15.3574H1.07132C0.874286 15.3574 0.714215 15.1973 0.714215 15.0003V11.4292C0.714215 11.2322 0.874286 11.0721 1.07132 11.0721H2.85687ZM15.4676 3.31299C15.1036 3.67743 14.5257 3.73688 14.1229 3.45179C11.7358 1.71546 8.26227 1.71548 5.87521 3.45181C5.47347 3.73688 4.89491 3.67742 4.53048 3.31299L4.19737 2.97977C7.32551 -0.0192157 12.6727 -0.0191943 15.8008 2.97986C15.8008 2.97977 15.4676 3.31299 15.4676 3.31299ZM19.2839 15.0003C19.2839 15.1973 19.1238 15.3574 18.9268 15.3574H17.1412C16.9439 15.3574 16.7841 15.5171 16.7841 15.7145V16.0716C16.7604 17.0116 15.3804 17.0145 15.3557 16.0716C15.3557 16.0716 15.3557 10.3579 15.3557 10.3579C15.3557 9.96398 15.6762 9.64366 16.0699 9.64366C16.4636 9.64366 16.7841 9.96398 16.7841 10.3579V13.929C16.7919 14.3982 17.4906 14.3985 17.4983 13.9289C17.4983 13.929 17.4983 11.0721 17.4983 11.0721H18.9268C19.1238 11.0721 19.2839 11.2322 19.2839 11.4292V15.0003Z" fill="#0F4A8A"/>
</svg>
