<svg width="96" height="102" viewBox="0 0 96 102" fill="none" xmlns="http://www.w3.org/2000/svg">
<g id="Group 24909" opacity="0.4">
<path id="Vector" d="M46.628 9.46565C36.3784 9.79417 26.5543 13.6563 18.8232 20.4019C11.0277 27.2037 5.84838 36.5112 4.17748 46.7212C2.50659 56.9311 4.44876 67.4041 9.66942 76.3361C14.8901 85.268 23.0623 92.0996 32.7784 95.654C42.4944 99.2083 53.1458 99.2629 62.8978 95.8083C72.6497 92.3537 80.8916 85.6063 86.2035 76.7283C91.5155 67.8504 93.5649 57.3978 91.9987 47.1713C90.4326 36.9451 85.3492 27.5852 77.6242 20.7039C77.624 20.7036 77.6238 20.7035 77.6235 20.7032L77.7898 20.5165C77.5919 20.3433 77.4553 20.1108 77.4003 19.8536C77.3454 19.5964 77.375 19.3283 77.4848 19.0893L46.628 9.46565ZM46.628 9.46565V14.1732V14.1739C46.6288 14.4509 46.7079 14.7221 46.8561 14.9562C47.0039 15.1895 47.2144 15.3765 47.4635 15.4956C47.661 15.5944 47.8792 15.6449 48.1 15.6431L48.1026 15.643C48.4341 15.6368 48.755 15.5247 49.0183 15.3232L49.0184 15.3233L49.0227 15.3198L55.4515 10.1719L55.4527 10.1709L56.0966 9.6485C56.0971 9.64811 56.0976 9.64772 56.0981 9.64732C56.2649 9.51532 56.4012 9.34866 56.4973 9.15885C56.5938 8.96848 56.6476 8.75938 56.6551 8.54609L56.6552 8.54442C56.6613 8.32832 56.6197 8.11353 56.5333 7.91536L56.3042 8.01525L56.5333 7.91535C56.4471 7.71742 56.3182 7.54093 56.156 7.39842C56.1558 7.39825 56.1556 7.39808 56.1554 7.39791L49.0689 1.11634L49.068 1.11561C48.8558 0.929177 48.5944 0.807839 48.315 0.76612C48.0356 0.724401 47.7501 0.764068 47.4927 0.880373L47.5956 1.1082L47.4927 0.880374C47.2353 0.996679 47.0168 1.1847 46.8635 1.42193C46.7101 1.65915 46.6284 1.93555 46.628 2.21803V2.21834V6.52564C35.6926 6.87111 25.2109 10.9914 16.9657 18.1906C8.65934 25.4432 3.1432 35.3662 1.368 46.2495C-0.407195 57.1327 1.66975 68.2943 7.24088 77.8105C12.812 87.3267 21.5283 94.6014 31.8875 98.3807C42.2466 102.16 53.5997 102.207 63.99 98.5142C74.3802 94.8212 83.1567 87.6192 88.8068 78.1497C94.4569 68.6802 96.6266 57.5362 94.942 46.6386C93.2574 35.7411 87.8241 25.7726 79.5785 18.4512C79.2878 18.1925 78.9064 18.0595 78.5179 18.0816C78.1294 18.1036 77.7655 18.2788 77.5059 18.5688L77.5058 18.5687L77.5008 18.5746C77.396 18.6994 77.3126 18.8407 77.2541 18.9927L46.628 9.46565Z" fill="white" stroke="white" stroke-width="0.5"/>
<path id="Vector_2" d="M60.8516 38.7423V38.7419V31.0626H35.3193V38.7419V38.7423C35.3174 39.8068 35.5463 40.8591 35.9903 41.8266C36.4344 42.7941 37.0829 43.6538 37.8913 44.3465L37.8919 44.347L43.3802 49.0791C43.3804 49.0793 43.3807 49.0795 43.3809 49.0796C43.975 49.5859 44.4519 50.2152 44.7787 50.924C45.1057 51.6331 45.2745 52.4048 45.2736 53.1856M60.8516 38.7423L45.0236 53.1853M60.8516 38.7423C60.8535 39.8068 60.6246 40.8591 60.1806 41.8266C59.7365 42.7941 59.088 43.6538 58.2796 44.3464L58.2786 44.3473L52.8151 49.0791C52.8148 49.0793 52.8145 49.0796 52.8143 49.0798L60.8516 38.7423ZM45.2736 53.1856L45.0236 53.1853M45.2736 53.1856V53.1853H45.0236M45.2736 53.1856V54.5881C45.2736 55.3687 45.1045 56.14 44.7776 56.8488C44.4509 57.5576 43.9743 58.187 43.3808 58.6938L43.3813 58.6933L43.2181 58.5039M45.0236 53.1853V54.5881C45.0236 55.3325 44.8623 56.0681 44.5506 56.7442C44.2389 57.4202 43.7843 58.0206 43.2181 58.5039M43.2181 58.5039L43.3805 58.6941M43.2181 58.5039L43.3805 58.6941M43.3805 58.6941L37.9162 63.4021L37.9157 63.4025C37.1043 64.0977 36.4539 64.9612 36.0098 65.9331C35.5656 66.9049 35.3383 67.9617 35.3437 69.0302L35.3437 69.0315L35.3437 76.6741M43.3805 58.6941L37.7531 63.2127C36.9141 63.9315 36.2416 64.8243 35.7824 65.8291C35.3232 66.834 35.0882 67.9267 35.0937 69.0315V76.6741H35.3437M35.3437 76.6741V76.9241H60.8516V76.6741M35.3437 76.6741H60.8516M60.8516 76.6741H61.1016M60.8516 76.6741V69.0071V69.0067C60.8535 67.9421 60.6246 66.8898 60.1806 65.9223C59.7365 64.9548 59.088 64.0951 58.2796 63.4025L58.2791 63.4021L52.8149 58.6941L52.9772 58.5039L52.814 58.6933L52.8145 58.6938C52.221 58.187 51.7444 57.5576 51.4177 56.8488C51.0909 56.14 50.9217 55.3687 50.9218 54.5881V53.1856V53.1853H51.1718C51.1708 52.4407 51.3318 51.7048 51.6436 51.0287C51.9553 50.3525 52.4104 49.7522 52.9772 49.2694L61.1016 76.6741M61.1016 76.6741V69.0071C61.1036 67.9064 60.8669 66.8184 60.4078 65.8181C59.9487 64.8177 59.2781 63.9288 58.4422 63.2127L61.1016 76.6741ZM29.0127 29.5928V23.7251C29.0127 23.3353 29.1676 22.9614 29.4432 22.6858C29.7189 22.4101 30.0927 22.2552 30.4826 22.2552H65.7127C66.1026 22.2552 66.4764 22.4101 66.7521 22.6858C67.0278 22.9614 67.1826 23.3353 67.1826 23.7251V29.5928C67.1826 29.9826 67.0278 30.3565 66.7521 30.6321C66.4764 30.9078 66.1026 31.0626 65.7127 31.0626H63.7913V38.7418C63.7913 38.7418 63.7913 38.7418 63.7913 38.7419C63.7918 40.2307 63.4702 41.702 62.8488 43.0549C62.2274 44.4078 61.3207 45.6104 60.1911 46.5801L29.0127 29.5928ZM29.0127 29.5928C29.0127 29.9826 29.1676 30.3565 29.4432 30.6321C29.7189 30.9078 30.0927 31.0626 30.4826 31.0626H32.404V38.7418C32.404 38.7418 32.404 38.7418 32.404 38.7419C32.4035 40.2307 32.7251 41.702 33.3465 43.0549C33.968 44.4079 34.8747 45.6105 36.0044 46.5802L41.4926 51.3001C41.4927 51.3002 41.4929 51.3003 41.4931 51.3005C41.7629 51.5353 41.9796 51.8249 42.1287 52.1501C42.2779 52.4752 42.3561 52.8283 42.3582 53.186V54.5874C42.3561 54.9451 42.2779 55.2982 42.1287 55.6233C41.9795 55.9485 41.7628 56.2382 41.4929 56.4731C41.4928 56.4731 41.4927 56.4732 41.4926 56.4733L36.0044 61.1932C34.8747 62.1629 33.968 63.3655 33.3465 64.7184C32.7251 66.0714 32.4035 67.5427 32.404 69.0315C32.404 69.0315 32.404 69.0316 32.404 69.0316V76.6985H30.4826C30.0927 76.6985 29.7189 76.8534 29.4432 77.1291C29.1676 77.4047 29.0127 77.7786 29.0127 78.1684V84.0482C29.0127 84.4381 29.1676 84.8119 29.4432 85.0876C29.7189 85.3633 30.0927 85.5181 30.4826 85.5181H65.7127C66.1026 85.5181 66.4764 85.3633 66.7521 85.0876C67.0278 84.812 67.1826 84.4381 67.1826 84.0482V78.1684C67.1826 77.7786 67.0278 77.4047 66.7521 77.1291C66.4764 76.8534 66.1026 76.6985 65.7127 76.6985H63.7913V69.0316C63.7913 69.0316 63.7913 69.0315 63.7913 69.0315C63.7918 67.5427 63.4702 66.0714 62.8488 64.7184C62.2273 63.3655 61.3207 62.1629 60.1909 61.1932L54.7027 56.4733C54.7026 56.4732 54.7025 56.4731 54.7024 56.4731C54.4325 56.2382 54.2158 55.9485 54.0666 55.6233C53.9174 55.2982 53.8392 54.9451 53.8371 54.5874V53.186C53.8392 52.8283 53.9174 52.4752 54.0666 52.1501C54.2157 51.8249 54.4324 51.5353 54.7022 51.3005C54.7024 51.3003 54.7026 51.3002 54.7027 51.3001L60.1909 46.5802L29.0127 29.5928ZM64.2428 79.6383V82.5784H31.9525V79.6383H64.2428ZM31.9525 25.195H64.2428V28.1229H31.9525V25.195Z" fill="white" stroke="white" stroke-width="0.5"/>
</g>
</svg>
