<svg width="93" height="100" viewBox="0 0 93 100" fill="none" xmlns="http://www.w3.org/2000/svg">
<g id="Group" opacity="0.4">
<path id="Vector" d="M80.6296 42.7212C83.2466 42.7212 85.3765 40.5919 85.3765 37.9744C85.3765 35.3568 83.2466 33.2275 80.6296 33.2275C78.0127 33.2275 75.8828 35.3568 75.8828 37.9744C75.8828 40.5919 78.0127 42.7212 80.6296 42.7212ZM80.6296 35.1263C82.1996 35.1263 83.4777 36.4038 83.4777 37.9744C83.4777 39.5449 82.1996 40.8225 80.6296 40.8225C79.0597 40.8225 77.7815 39.5449 77.7815 37.9744C77.7815 36.4038 79.0597 35.1263 80.6296 35.1263Z" fill="white"/>
<path id="Vector_2" d="M12.2752 33.2275C9.65822 33.2275 7.52832 35.3568 7.52832 37.9744C7.52832 40.5919 9.65822 42.7212 12.2752 42.7212C14.8921 42.7212 17.022 40.5919 17.022 37.9744C17.022 35.3568 14.8921 33.2275 12.2752 33.2275ZM12.2752 40.8225C10.7052 40.8225 9.42705 39.5449 9.42705 37.9744C9.42705 36.4038 10.7052 35.1263 12.2752 35.1263C13.8451 35.1263 15.1233 36.4038 15.1233 37.9744C15.1233 39.5449 13.8451 40.8225 12.2752 40.8225Z" fill="white"/>
<path id="Vector_3" d="M16.0726 50.9497H8.47769C7.95356 50.9497 7.52832 51.3749 7.52832 51.8991C7.52832 52.4232 7.95356 52.8484 8.47769 52.8484H16.0726C16.5968 52.8484 17.022 52.4232 17.022 51.8991C17.022 51.3749 16.5968 50.9497 16.0726 50.9497Z" fill="white"/>
<path id="Vector_4" d="M84.4271 50.9497H76.8322C76.308 50.9497 75.8828 51.3749 75.8828 51.8991C75.8828 52.4232 76.308 52.8484 76.8322 52.8484H84.4271C84.9512 52.8484 85.3765 52.4232 85.3765 51.8991C85.3765 51.3749 84.9512 50.9497 84.4271 50.9497Z" fill="white"/>
<path id="Vector_5" d="M92.9045 46.4529C92.9045 20.8385 72.0666 0 46.4522 0C20.8379 0 0 20.8385 0 46.4529C0 63.2528 8.98407 77.9674 22.3807 86.126L21.2816 89.6429C21.2433 89.7653 21.2235 89.8926 21.2235 90.0205V98.7342C21.2235 99.4332 21.7897 100 22.4894 100H70.4151C71.1148 100 71.6809 99.4332 71.6809 98.7342V90.0205C71.6809 89.8926 71.6611 89.7653 71.6228 89.6429L70.5237 86.126C83.9204 77.9674 92.9045 63.2528 92.9045 46.4529ZM60.0997 4.71578C59.4414 7.97845 56.5532 10.443 53.099 10.443H39.8054C36.3513 10.443 33.463 7.97845 32.8048 4.71578C37.1035 3.30579 41.6875 2.53165 46.4522 2.53165C51.217 2.53165 55.801 3.30579 60.0997 4.71578ZM31.0065 5.34792C31.9375 9.34873 35.5246 12.3418 39.8054 12.3418H53.099C57.3798 12.3418 60.967 9.34873 61.898 5.34792C78.1355 11.4731 89.8206 26.9525 90.3407 45.187H72.7058C72.0388 31.2655 60.5362 20.1357 46.4522 20.1357C32.3683 20.1357 20.8657 31.2655 20.1986 45.187H2.56379C3.0839 26.9525 14.769 11.4731 31.0065 5.34792ZM34.3132 56.4323H35.8729L35.3886 59.3373C35.3429 59.613 35.4208 59.8942 35.6013 60.1074C35.7817 60.32 36.0463 60.443 36.3257 60.443H56.5788C56.8582 60.443 57.1227 60.32 57.3032 60.1074C57.4837 59.8942 57.5616 59.613 57.5158 59.3373L57.0316 56.4323H58.5913L68.6931 88.7547H24.2113L34.3132 56.4323ZM37.4468 58.5443L38.3962 52.8481H54.5083L55.4576 58.5443H37.4468ZM60.7298 54.7889C60.5654 54.2604 60.0759 53.9007 59.5221 53.9007H56.6097L56.25 51.7424C56.1734 51.285 55.7766 50.9494 55.313 50.9494H37.5915C37.1279 50.9494 36.7311 51.285 36.6545 51.7424L36.2948 53.9007H33.3824C32.8286 53.9007 32.3391 54.2604 32.1746 54.7889L29.5636 63.1431C25.3118 58.8467 22.6661 52.9609 22.6661 46.4529C22.6661 33.3372 33.3366 22.6674 46.4522 22.6674C59.5678 22.6674 70.2383 33.3372 70.2383 46.4529C70.2383 52.9609 67.5927 58.8467 63.3409 63.1431L60.7298 54.7889ZM2.56379 47.7187H20.1986C20.5418 54.8811 23.7642 61.2918 28.7211 65.8392L23.158 83.6392C11.1279 76.0713 2.99536 62.8512 2.56379 47.7187ZM23.7552 97.4684V91.2863H69.1493V97.4684H23.7552ZM69.7465 83.6392L64.1833 65.8392C69.1403 61.2918 72.3627 54.8811 72.7058 47.7187H90.3407C89.9091 62.8512 81.7766 76.0713 69.7465 83.6392Z" fill="white"/>
</g>
</svg>
