<svg width="20" height="20" viewBox="0 0 20 20" fill="none" xmlns="http://www.w3.org/2000/svg">
<path d="M6.01418 9.08891C5.8124 8.72584 5.49577 8.44005 5.11399 8.2764C4.73221 8.11275 4.30689 8.08051 3.90481 8.18473C3.50272 8.28895 3.14662 8.52375 2.89241 8.85225C2.6382 9.18075 2.50027 9.58437 2.50027 9.99975C2.50027 10.4151 2.6382 10.8187 2.89241 11.1472C3.14662 11.4757 3.50272 11.7105 3.90481 11.8148C4.30689 11.919 4.73221 11.8867 5.11399 11.7231C5.49577 11.5594 5.8124 11.2737 6.01418 10.9106M6.01418 9.08891C6.16418 9.35891 6.25001 9.66891 6.25001 9.99975C6.25001 10.3306 6.16418 10.6414 6.01418 10.9106M6.01418 9.08891L13.9858 4.66058M6.01418 10.9106L13.9858 15.3389M13.9858 4.66058C14.1027 4.8807 14.2623 5.0753 14.4553 5.23302C14.6482 5.39074 14.8707 5.50841 15.1097 5.57914C15.3487 5.64988 15.5993 5.67227 15.8471 5.64499C16.0948 5.61772 16.3346 5.54133 16.5524 5.4203C16.7703 5.29927 16.9619 5.13602 17.1159 4.94009C17.2699 4.74417 17.3833 4.5195 17.4495 4.27923C17.5157 4.03896 17.5333 3.78791 17.5014 3.54074C17.4694 3.29358 17.3885 3.05527 17.2633 2.83975C17.0167 2.41503 16.6133 2.10403 16.1398 1.97359C15.6664 1.84316 15.1606 1.9037 14.7313 2.14221C14.302 2.38072 13.9834 2.77815 13.844 3.24908C13.7046 3.72 13.7555 4.22682 13.9858 4.66058ZM13.9858 15.3389C13.8662 15.5542 13.7902 15.791 13.7621 16.0357C13.734 16.2804 13.7543 16.5282 13.822 16.7651C13.8897 17.0019 14.0033 17.2231 14.1565 17.416C14.3096 17.6089 14.4993 17.7697 14.7146 17.8893C14.9299 18.0089 15.1667 18.085 15.4114 18.1131C15.6561 18.1412 15.9039 18.1208 16.1407 18.0532C16.3776 17.9855 16.5987 17.8718 16.7916 17.7187C16.9845 17.5655 17.1454 17.3759 17.265 17.1606C17.5066 16.7257 17.5655 16.2127 17.4288 15.7344C17.2922 15.2561 16.9711 14.8517 16.5363 14.6102C16.1014 14.3686 15.5884 14.3097 15.1101 14.4463C14.6318 14.583 14.2274 14.9041 13.9858 15.3389Z" stroke="white" stroke-width="1.5" stroke-linecap="round" stroke-linejoin="round"/>
</svg>
