<svg width="94" height="94" viewBox="0 0 94 94" fill="none" xmlns="http://www.w3.org/2000/svg">
<path fill-rule="evenodd" clip-rule="evenodd" d="M0 28.2C0 16.4508 1.16726e-06 10.5762 2.99206 6.45803C3.95838 5.12801 5.12801 3.95838 6.45803 2.99206C10.5762 1.16726e-06 16.4508 0 28.2 0H65.8C77.5492 0 83.4238 1.16726e-06 87.5418 2.99206C88.8719 3.95838 90.0418 5.12801 91.0081 6.45803C94 10.5762 94 16.4508 94 28.2V65.8C94 77.5492 94 83.4238 91.0081 87.5418C90.0418 88.8719 88.8719 90.0418 87.5418 91.0081C83.4238 94 77.5492 94 65.8 94H28.2C16.4508 94 10.5762 94 6.45803 91.0081C5.12801 90.0418 3.95838 88.8719 2.99206 87.5418C1.16726e-06 83.4238 0 77.5492 0 65.8V28.2ZM28.2 3.91667H65.8C71.7619 3.91667 75.9187 3.92203 79.1108 4.26788C82.2296 4.6058 83.9596 5.23063 85.24 6.16072C86.2372 6.88546 87.1145 7.76268 87.8395 8.76002C88.7693 10.0404 89.3944 11.7704 89.732 14.8892C90.0779 18.0813 90.0833 22.2381 90.0833 28.2V65.8C90.0833 71.7619 90.0779 75.9187 89.732 79.1108C89.3944 82.2296 88.7693 83.9596 87.8395 85.24C87.1145 86.2372 86.2372 87.1145 85.24 87.8395C83.9596 88.7693 82.2296 89.3944 79.1108 89.732C75.9187 90.0779 71.7619 90.0833 65.8 90.0833H28.2C22.2381 90.0833 18.0813 90.0779 14.8892 89.732C11.7704 89.3944 10.0404 88.7693 8.76002 87.8395C7.76268 87.1145 6.88546 86.2372 6.16072 85.24C5.23063 83.9596 4.6058 82.2296 4.26788 79.1108C3.92203 75.9187 3.91667 71.7619 3.91667 65.8V28.2C3.91667 22.2381 3.92203 18.0813 4.26788 14.8892C4.6058 11.7704 5.23063 10.0404 6.16072 8.76002C6.88546 7.76268 7.76268 6.88546 8.76002 6.16072C10.0404 5.23063 11.7704 4.6058 14.8892 4.26788C18.0813 3.92203 22.2381 3.91667 28.2 3.91667Z" fill="white"/>
</svg>
