<svg width="35" height="42" viewBox="0 0 35 42" fill="none" xmlns="http://www.w3.org/2000/svg">
<g id="Group">
<path id="Vector" d="M7.78217 32.8268L7.78206 32.8269L7.82847 32.8784C10.2897 35.3383 13.6894 36.8599 17.4443 36.8599C21.1951 36.8599 24.5946 35.3385 27.0574 32.8771L7.78217 32.8268ZM7.78217 32.8268L7.77734 32.8219C5.34465 30.363 3.84158 26.9832 3.84158 23.2559C3.84158 19.5038 5.36561 16.1029 7.82845 13.6401L7.82856 13.64C10.2872 11.1761 13.689 9.65342 17.4449 9.65324C21.2009 9.65342 24.6014 11.1761 27.0627 13.6375C29.5242 16.0989 31.0469 19.4997 31.0469 23.2559C31.0469 27.0081 29.5242 30.4076 27.0627 32.8718L27.0574 32.877L7.78217 32.8268ZM15.061 38.8599H14.7955H14.7915H14.7788L14.7663 38.8578C11.4672 38.2959 8.51481 36.7133 6.24886 34.4473L6.24884 34.4473C3.38628 31.5834 1.61364 27.6249 1.61364 23.2546C1.61364 18.8843 3.38495 14.9271 6.24886 12.0632L6.2489 12.0631C8.4506 9.86278 11.2973 8.30688 14.4827 7.70484L14.483 7.7048L14.5466 7.69288L14.5469 7.69282C15.486 7.5189 16.4532 7.42795 17.4416 7.42795C18.4314 7.42795 19.3972 7.5189 20.3363 7.69282L20.3367 7.69288L20.4003 7.7048L20.4005 7.70484C23.5859 8.30688 26.4326 9.86278 28.6343 12.0631L28.6343 12.0632C31.4983 14.9271 33.2696 18.8843 33.2696 23.2546C33.2696 23.6605 33.5985 23.9884 34.0034 23.9884C34.4093 23.9884 34.7372 23.6595 34.7372 23.2546C34.7372 18.4794 32.801 14.1551 29.6717 11.0258L29.6717 11.0258C27.4252 8.77798 24.5628 7.14782 21.359 6.40566L21.2429 6.37875V6.25953V4.66284V4.51284H21.3929H22.3986C22.8046 4.51284 23.1324 4.18396 23.1324 3.77904V0.883807C23.1324 0.477853 22.8035 0.15 22.3986 0.15H12.4886C12.0826 0.15 11.7548 0.478886 11.7548 0.883807V3.77904C11.7548 4.18499 12.0837 4.51284 12.4886 4.51284H13.4943H13.6443V4.66284V6.25953V6.37875L13.5281 6.40566C10.3244 7.14781 7.46198 8.77927 5.21547 11.0258C5.21547 11.0258 5.21546 11.0258 5.21545 11.0258M15.061 38.8599L0 23.2546C0 18.438 1.95312 14.0773 5.10939 10.9197L5.21545 11.0258M15.061 38.8599L14.924 38.6325C14.769 38.3754 14.7845 38.038 14.9855 37.793M15.061 38.8599L14.9855 37.793M5.21545 11.0258C2.08614 14.1564 0.15 18.4795 0.15 23.2546C0.15 28.0298 2.08616 32.3541 5.21545 35.4834L5.21548 35.4834C7.74834 38.0176 11.0666 39.7686 14.7708 40.3439L15.0645 40.3895L14.8534 40.5987C14.6143 40.8355 14.5621 41.2141 14.7475 41.5094C14.9617 41.8498 15.4136 41.9523 15.7545 41.7379L15.7546 41.7378L17.7674 40.4751L17.778 40.4684L17.7783 40.4688C18.0154 40.3464 18.1767 40.0998 18.1767 39.8164C18.1767 39.5658 18.0505 39.3435 17.8576 39.2113L17.8467 39.2038L17.8471 39.2034L16.0133 37.6928C15.7024 37.4369 15.2417 37.4818 14.9855 37.793M5.21545 11.0258L14.9855 37.793M26.0693 14.7161V14.7177C28.2395 16.9102 29.5806 19.9256 29.5806 23.2546C29.5806 26.6085 28.2228 29.6435 26.0254 31.8409L26.0693 14.7161ZM26.0693 14.7161L26.0253 14.6722M26.0693 14.7161L26.0253 14.6722M26.0253 14.6722C23.8292 12.4761 20.7943 11.1182 17.4443 11.1182C14.0929 11.1182 11.058 12.4774 8.86195 14.6734C6.66442 16.8669 5.30655 19.9006 5.30655 23.2546C5.30655 26.587 6.64561 29.6033 8.81496 31.7941L8.81483 31.7942M26.0253 14.6722L8.81483 31.7942M8.81483 31.7942L8.82033 31.7992M8.81483 31.7942L8.82033 31.7992M8.82033 31.7992L8.86425 31.8394M8.82033 31.7992L8.86425 31.8394M8.86425 31.8394C11.0601 34.034 14.0941 35.3923 17.4443 35.3923C20.7981 35.3923 23.8318 34.0358 26.0253 31.841L8.86425 31.8394ZM29.7778 10.9197C32.9341 14.076 34.8872 18.438 34.8872 23.2546C34.8872 23.7422 34.4923 24.1384 34.0034 24.1384C33.5158 24.1384 33.1196 23.7435 33.1196 23.2546C33.1196 18.9257 31.3652 15.0062 28.5283 12.1692L29.7778 10.9197ZM18.1781 22.8889V22.951L18.222 22.9949L21.418 26.191C21.7038 26.4768 21.7041 26.9411 21.4178 27.2286C21.132 27.5142 20.6678 27.5144 20.3804 27.2281L16.9302 23.7779L16.9293 23.7771C16.7939 23.6438 16.7104 23.4593 16.7104 23.2546V15.3719C16.7104 14.967 17.0383 14.6381 17.4443 14.6381C17.8492 14.6381 18.1781 14.9659 18.1781 15.3719V22.8889ZM13.2211 2.89788V3.04788H13.3711H21.5148H21.6648V2.89788V1.76894V1.61894H21.5148H13.3711H13.2211V1.76894V2.89788ZM19.6372 5.94681H19.7766V4.66417V4.51417H19.6266H15.2606H15.1106V4.66417V5.94681V6.11689L15.2793 6.09564C15.9885 6.00634 16.711 5.96166 17.4443 5.96166C18.1316 5.96166 18.8098 6.00209 19.4766 6.0797V6.09681H19.6266H19.6279L19.6372 5.94681Z" fill="#F0A400" stroke="#FDF6E5" stroke-width="0.3"/>
</g>
</svg>
