<svg width="180" height="180" viewBox="0 0 180 180" fill="none" xmlns="http://www.w3.org/2000/svg">
<path d="M52.9948 77.2082C48.8832 74.0102 47.9695 68.0711 51.1674 63.9594C53.9085 59.3909 60.3045 58.4772 64.4162 61.6752C73.5532 68.0711 81.7766 75.3807 88.1725 84.5178C106.903 56.1929 131.574 34.7208 159.898 16.4467C164.467 13.2488 170.406 14.6193 173.604 19.1879C176.345 23.7564 174.975 29.6955 170.406 32.4366C140.254 52.0813 114.67 75.3807 96.8527 107.36C92.741 113.756 83.1471 114.213 79.9492 106.904C73.5532 95.0254 63.9593 84.9747 52.9948 77.2082Z" fill="#61CD7F"/>
<path d="M90 0C107.36 0 123.35 5.02538 137.056 13.2487C132.487 16.4467 127.919 20.1015 123.807 23.2995C113.756 18.2741 101.878 15.533 90 15.533C48.8832 15.533 15.533 48.8832 15.533 90C15.533 131.117 48.8832 164.467 90 164.467C131.117 164.467 164.467 131.117 164.467 90C164.467 79.4924 162.183 69.4416 158.071 60.3046C162.183 57.1066 166.751 53.9086 170.863 50.7107C176.802 62.5888 180 75.8376 180 90C180 139.34 139.34 180 90 180C40.203 180 0 139.34 0 90C0 40.203 40.203 0 90 0Z" fill="#61CD7F"/>
</svg>
