<svg width="36" height="36" viewBox="0 0 36 36" fill="none" xmlns="http://www.w3.org/2000/svg">
<path d="M28.7998 18.2641C28.7998 17.5201 28.7278 16.7521 28.6078 16.0321H18.2158V20.2801H24.1678C23.9278 21.6481 23.1358 22.8481 21.9598 23.6161L25.5118 26.3761C27.5998 24.4321 28.7998 21.6001 28.7998 18.2641Z" fill="#4280EF"/>
<path d="M18.216 29.0161C21.192 29.0161 23.688 28.0321 25.512 26.3521L21.96 23.6161C20.976 24.2881 19.704 24.6721 18.216 24.6721C15.336 24.6721 12.912 22.7281 12.024 20.1361L8.37598 22.9441C10.248 26.6641 14.04 29.0161 18.216 29.0161Z" fill="#34A353"/>
<path d="M12.0241 20.112C11.5681 18.744 11.5681 17.256 12.0241 15.888L8.37605 13.056C6.81605 16.176 6.81605 19.848 8.37605 22.944L12.0241 20.112Z" fill="#F6B704"/>
<path d="M18.216 11.3521C19.776 11.3281 21.312 11.9281 22.44 13.0081L25.584 9.84006C23.592 7.96806 20.952 6.96006 18.216 6.98406C14.04 6.98406 10.248 9.33606 8.37598 13.0561L12.024 15.8881C12.912 13.2721 15.336 11.3521 18.216 11.3521Z" fill="#E54335"/>
</svg>
