<svg width="192" height="143" viewBox="0 0 192 143" fill="none" xmlns="http://www.w3.org/2000/svg">
<g opacity="0.4">
<path d="M0 104.6C0 125.803 17.1969 143 38.4 143C59.6032 143 76.8 125.803 76.8 104.6C76.8 83.3969 59.6032 66.2 38.4 66.2C32.0504 66.2 26.1921 67.863 20.9008 70.5843C27.7039 40.6504 54.5008 18.2 86.4756 18.2C91.7669 18.2 96.0756 13.8913 96.0756 8.6C96.0756 3.30866 91.7669 -1 86.4756 -1C38.778 -1 0 37.778 0 85.4756V104.6Z" fill="#333333"/>
<path d="M95.9243 104.6C95.9243 125.803 113.121 143 134.324 143C155.527 143 172.724 125.803 172.724 104.6C172.724 83.3969 155.527 66.2 134.324 66.2C127.975 66.2 122.116 67.863 116.825 70.5843C123.628 40.6504 150.425 18.2 182.4 18.2C187.691 18.2 192 13.8913 192 8.6C192 3.30866 187.691 -1 182.4 -1C134.702 -1 95.9243 37.778 95.9243 85.4756V104.6Z" fill="#333333"/>
</g>
</svg>
