<svg width="540.3" height="94.6" viewBox="0 0 540.3 94.6" xmlns="http://www.w3.org/2000/svg"><g id="svgGroup" stroke-linecap="round" fill-rule="evenodd" font-size="9pt" stroke="#ebd700" stroke-width="0.25mm" fill="#bd3a3a" style="stroke:#ebd700;stroke-width:0.25mm;fill:#bd3a3a"><path d="M 0 72.5 L 0 4.8 Q 0.679 4.8 3.05 4.753 A 868.153 868.153 0 0 0 3.2 4.75 Q 5.69 4.7 8.776 4.7 A 245.122 245.122 0 0 1 8.8 4.7 Q 11.9 4.7 15 4.65 Q 18.1 4.6 20.1 4.6 Q 31.856 4.6 37.59 8.959 A 14.246 14.246 0 0 1 38.2 9.45 A 15.818 15.818 0 0 1 43.584 19.177 A 23.342 23.342 0 0 1 43.9 23.1 A 19.731 19.731 0 0 1 42.891 29.49 A 17.717 17.717 0 0 1 41 33.4 A 13.925 13.925 0 0 1 36.45 37.744 Q 34.31 39.048 31.5 39.9 Q 34.3 41.5 36.5 44.3 A 35.698 35.698 0 0 1 38.541 47.2 Q 39.684 48.998 40.8 51.15 Q 42.761 54.931 44.808 59.845 A 162.996 162.996 0 0 1 45.1 60.55 Q 47.265 65.815 50.108 72.291 A 747.295 747.295 0 0 0 50.2 72.5 L 37.3 72.5 A 975.963 975.963 0 0 0 34.87 66.898 Q 32.944 62.5 31.35 59 Q 29.423 54.767 27.581 51.734 A 39.479 39.479 0 0 0 26.4 49.9 Q 24.411 47 22.182 45.404 A 11.778 11.778 0 0 0 21.25 44.8 A 11.704 11.704 0 0 0 17.033 43.358 A 15.252 15.252 0 0 0 14.8 43.2 L 11.9 43.2 L 11.9 72.5 L 0 72.5 Z M 540.3 72.5 L 529 72.5 L 529 40.2 A 19.196 19.196 0 0 0 528.823 37.507 Q 528.484 35.123 527.5 33.45 Q 526 30.9 522.4 30.9 A 9.281 9.281 0 0 0 518.101 31.971 A 10.862 10.862 0 0 0 517.95 32.05 A 11.361 11.361 0 0 0 515.206 34.128 A 14.164 14.164 0 0 0 514.1 35.4 A 16.055 16.055 0 0 0 512.352 38.261 A 21.124 21.124 0 0 0 511.35 40.75 A 20.214 20.214 0 0 0 510.46 44.868 A 25.956 25.956 0 0 0 510.3 47.8 L 510.3 72.5 L 498.9 72.5 L 498.9 47.3 A 74.622 74.622 0 0 0 498.789 43.095 Q 498.678 41.132 498.456 39.44 A 34.392 34.392 0 0 0 498.1 37.25 A 70.443 70.443 0 0 0 497.538 34.649 Q 497.264 33.495 496.98 32.508 A 29.383 29.383 0 0 0 496.4 30.7 Q 495.3 27.8 494 26 L 503 22.4 Q 503.934 23.427 504.867 24.89 A 26.273 26.273 0 0 1 505 25.1 Q 505.8 26.5 506.6 28.55 A 23.508 23.508 0 0 1 507.385 30.957 A 31.052 31.052 0 0 1 507.9 33.2 A 20.498 20.498 0 0 1 510.503 28.734 A 15.524 15.524 0 0 1 515.4 24.55 Q 520.3 21.9 525.7 21.9 A 20.04 20.04 0 0 1 529.897 22.31 Q 532.408 22.848 534.273 24.094 A 10.34 10.34 0 0 1 536.85 26.55 A 16.282 16.282 0 0 1 539.41 31.915 Q 540.3 35.088 540.3 39.1 L 540.3 72.5 Z M 153.5 69.7 L 144.6 73.3 A 0.566 0.566 0 0 1 144.498 73.228 Q 144.258 73.027 143.7 72.35 Q 143.23 71.779 142.692 70.914 A 25.915 25.915 0 0 1 142.15 70 A 17.861 17.861 0 0 1 141.468 68.657 Q 141.16 67.988 140.859 67.215 A 34.657 34.657 0 0 1 140.5 66.25 Q 139.7 64 139.5 61 A 22.941 22.941 0 0 1 137.937 65.085 Q 136.394 68.144 134.05 70.05 Q 130.739 72.743 125.364 73.058 A 24.984 24.984 0 0 1 123.9 73.1 A 21.237 21.237 0 0 1 119.897 72.741 A 15.624 15.624 0 0 1 115.75 71.35 Q 112.3 69.6 110 66.35 A 20.265 20.265 0 0 1 107.692 62.015 A 26.556 26.556 0 0 1 106.6 58.5 A 39.285 39.285 0 0 1 105.711 53.009 A 50.754 50.754 0 0 1 105.5 48.3 A 32.568 32.568 0 0 1 106.254 41.185 A 28.253 28.253 0 0 1 107.25 37.75 A 26.204 26.204 0 0 1 110.234 31.842 A 23.158 23.158 0 0 1 112.15 29.4 Q 115.3 25.9 119.7 23.9 A 22.525 22.525 0 0 1 127.444 21.97 A 26.829 26.829 0 0 1 129.4 21.9 Q 131.2 21.9 133.25 22.1 Q 135.3 22.3 137.3 22.6 L 137.3 0 L 148.7 2 L 148.7 48.4 A 85.038 85.038 0 0 0 148.79 52.448 Q 148.952 55.82 149.4 58.35 Q 150.1 62.3 151 64.75 A 33.609 33.609 0 0 0 151.494 66.021 Q 151.966 67.161 152.393 67.891 A 6.943 6.943 0 0 0 152.65 68.3 A 32.717 32.717 0 0 1 152.908 68.684 Q 153.419 69.456 153.5 69.7 Z M 174.4 92.6 L 163 94.6 L 163 47.3 A 74.622 74.622 0 0 0 162.889 43.095 Q 162.778 41.132 162.556 39.44 A 34.392 34.392 0 0 0 162.2 37.25 A 70.443 70.443 0 0 0 161.638 34.649 Q 161.364 33.495 161.08 32.508 A 29.383 29.383 0 0 0 160.5 30.7 Q 159.4 27.8 158.1 26 L 167.1 22.4 A 11.784 11.784 0 0 1 168.353 23.892 A 15.814 15.814 0 0 1 169.3 25.4 A 22.732 22.732 0 0 1 169.9 26.616 Q 170.4 27.706 170.9 29.05 Q 171.64 31.039 172.038 33.671 A 33.472 33.472 0 0 1 172.1 34.1 Q 173.551 28.979 176.459 25.97 A 13.552 13.552 0 0 1 177.5 25 Q 180.622 22.384 185.808 21.976 A 25.365 25.365 0 0 1 187.8 21.9 A 21.237 21.237 0 0 1 191.803 22.259 A 15.624 15.624 0 0 1 195.95 23.65 Q 199.4 25.4 201.65 28.65 A 20.659 20.659 0 0 1 203.892 32.922 A 27.334 27.334 0 0 1 205 36.5 A 39.285 39.285 0 0 1 205.889 41.991 A 50.754 50.754 0 0 1 206.1 46.7 Q 206.1 52.4 204.4 57.25 Q 202.7 62.1 199.55 65.6 Q 196.4 69.1 192 71.1 Q 187.6 73.1 182.2 73.1 Q 180.3 73.1 178.35 72.9 Q 176.4 72.7 174.4 72.5 L 174.4 92.6 Z M 290.9 30.8 L 290.9 22.7 L 299.9 22.7 L 301.9 11 L 311.3 8.9 L 311.3 22.7 L 323.6 22.7 L 322.2 30.8 L 311.3 30.8 L 311.3 60.4 A 7.487 7.487 0 0 0 311.377 61.517 Q 311.592 62.938 312.409 63.563 A 2.144 2.144 0 0 0 312.7 63.75 A 6.395 6.395 0 0 0 315.536 64.495 A 7.552 7.552 0 0 0 315.8 64.5 Q 317.2 64.5 318.6 64.3 A 24.323 24.323 0 0 0 319.905 64.079 Q 320.541 63.952 321.1 63.8 Q 322.4 63.5 323.6 63.1 L 325.5 70.6 L 324.6 70.9 A 9.101 9.101 0 0 1 323.991 71.142 Q 323.18 71.434 321.95 71.75 Q 320.446 72.137 318.499 72.45 A 57.233 57.233 0 0 1 317.85 72.55 Q 315.5 72.9 312.7 72.9 A 22.898 22.898 0 0 1 309.692 72.71 A 18.456 18.456 0 0 1 307.55 72.3 A 11.468 11.468 0 0 1 304.989 71.323 A 9.763 9.763 0 0 1 303.5 70.35 A 9.077 9.077 0 0 1 300.941 67.095 A 10.586 10.586 0 0 1 300.85 66.9 A 9.885 9.885 0 0 1 300.184 64.792 Q 299.9 63.395 299.9 61.7 L 299.9 30.8 L 290.9 30.8 Z M 379.1 30.8 L 379.1 22.7 L 388.1 22.7 L 390.1 11 L 399.5 8.9 L 399.5 22.7 L 411.8 22.7 L 410.4 30.8 L 399.5 30.8 L 399.5 60.4 A 7.487 7.487 0 0 0 399.577 61.517 Q 399.792 62.938 400.609 63.563 A 2.144 2.144 0 0 0 400.9 63.75 A 6.395 6.395 0 0 0 403.736 64.495 A 7.552 7.552 0 0 0 404 64.5 Q 405.4 64.5 406.8 64.3 A 24.323 24.323 0 0 0 408.105 64.079 Q 408.741 63.952 409.3 63.8 Q 410.6 63.5 411.8 63.1 L 413.7 70.6 L 412.8 70.9 A 9.101 9.101 0 0 1 412.191 71.142 Q 411.38 71.434 410.15 71.75 Q 408.646 72.137 406.699 72.45 A 57.233 57.233 0 0 1 406.05 72.55 Q 403.7 72.9 400.9 72.9 A 22.898 22.898 0 0 1 397.892 72.71 A 18.456 18.456 0 0 1 395.75 72.3 A 11.468 11.468 0 0 1 393.189 71.323 A 9.763 9.763 0 0 1 391.7 70.35 A 9.077 9.077 0 0 1 389.141 67.095 A 10.586 10.586 0 0 1 389.05 66.9 A 9.885 9.885 0 0 1 388.384 64.792 Q 388.1 63.395 388.1 61.7 L 388.1 30.8 L 379.1 30.8 Z M 284.5 61.5 L 287.5 68.6 Q 284.9 69.9 281.9 70.9 A 39.936 39.936 0 0 1 279.287 71.7 Q 277.904 72.075 276.348 72.406 A 66.039 66.039 0 0 1 275.9 72.5 A 34.595 34.595 0 0 1 270.343 73.167 A 39.876 39.876 0 0 1 268.7 73.2 A 32.194 32.194 0 0 1 264.268 72.911 Q 261.898 72.581 259.894 71.875 A 18.166 18.166 0 0 1 258.8 71.45 A 17.88 17.88 0 0 1 254.065 68.529 A 16.207 16.207 0 0 1 252.1 66.5 A 19.295 19.295 0 0 1 249.086 61.228 A 23.786 23.786 0 0 1 248.3 58.8 A 34.788 34.788 0 0 1 247.33 53.421 A 44.816 44.816 0 0 1 247.1 48.8 A 41.196 41.196 0 0 1 247.5 42.917 A 29.81 29.81 0 0 1 248.95 37 A 26.975 26.975 0 0 1 251.392 31.915 A 22.012 22.012 0 0 1 254.05 28.45 Q 257.3 25 261.7 23.25 A 25.08 25.08 0 0 1 269.936 21.527 A 28.991 28.991 0 0 1 271.2 21.5 A 30.722 30.722 0 0 1 274.572 21.675 Q 276.21 21.856 277.618 22.225 A 16.238 16.238 0 0 1 278.85 22.6 A 16.617 16.617 0 0 1 281.55 23.807 A 12.365 12.365 0 0 1 284 25.6 Q 286 27.5 286.95 30.1 A 15.869 15.869 0 0 1 287.877 34.772 A 18.381 18.381 0 0 1 287.9 35.7 A 12.813 12.813 0 0 1 286.031 42.334 A 15.288 15.288 0 0 1 285.9 42.55 A 16.865 16.865 0 0 1 282.619 46.386 A 21.911 21.911 0 0 1 280.15 48.25 A 27.553 27.553 0 0 1 275.728 50.571 A 37.623 37.623 0 0 1 271.1 52.15 A 42.399 42.399 0 0 1 264.773 53.349 A 56.007 56.007 0 0 1 259.2 53.7 A 25.655 25.655 0 0 0 259.919 57.272 A 23.012 23.012 0 0 0 260.15 58.05 A 11.28 11.28 0 0 0 261.428 60.791 A 10.228 10.228 0 0 0 262.05 61.65 A 8.396 8.396 0 0 0 264.576 63.74 A 10.148 10.148 0 0 0 265.3 64.1 Q 266.948 64.842 269.276 64.972 A 18.313 18.313 0 0 0 270.3 65 A 22.031 22.031 0 0 0 273.093 64.814 A 27.546 27.546 0 0 0 275 64.5 Q 277.5 64 279.6 63.3 Q 282.1 62.5 284.5 61.5 Z M 95.1 24.8 L 95.1 48.4 Q 95.1 54.4 95.85 58.45 A 65.038 65.038 0 0 0 96.383 61.051 Q 96.646 62.205 96.926 63.192 A 27.239 27.239 0 0 0 97.5 65 Q 98.279 67.123 99.157 68.595 A 11.636 11.636 0 0 0 99.9 69.7 L 91 73.3 A 15.356 15.356 0 0 1 89.453 71.48 A 18.957 18.957 0 0 1 88.6 70.2 Q 87.7 68.6 86.9 66.35 A 16.077 16.077 0 0 1 86.283 64.059 Q 86.058 62.914 85.946 61.61 A 28.401 28.401 0 0 1 85.9 61 A 22.941 22.941 0 0 1 84.337 65.085 Q 82.794 68.144 80.45 70.05 Q 77.139 72.743 71.764 73.058 A 24.984 24.984 0 0 1 70.3 73.1 A 21.237 21.237 0 0 1 66.297 72.741 A 15.624 15.624 0 0 1 62.15 71.35 Q 58.7 69.6 56.4 66.35 A 20.265 20.265 0 0 1 54.092 62.015 A 26.556 26.556 0 0 1 53 58.5 A 39.285 39.285 0 0 1 52.111 53.009 A 50.754 50.754 0 0 1 51.9 48.3 A 32.568 32.568 0 0 1 52.654 41.185 A 28.253 28.253 0 0 1 53.65 37.75 A 26.204 26.204 0 0 1 56.634 31.842 A 23.158 23.158 0 0 1 58.55 29.4 Q 61.7 25.9 66.1 23.9 A 22.525 22.525 0 0 1 73.844 21.97 A 26.829 26.829 0 0 1 75.8 21.9 Q 78.8 21.9 82.05 22.35 Q 85.3 22.8 88.1 23.3 Q 90.244 23.683 91.889 24.036 A 64.924 64.924 0 0 1 92.85 24.25 A 208.364 208.364 0 0 1 93.523 24.406 Q 94.677 24.677 95.015 24.774 A 2.236 2.236 0 0 1 95.1 24.8 Z M 371.2 24.8 L 371.2 48.4 Q 371.2 54.4 371.95 58.45 A 65.038 65.038 0 0 0 372.483 61.051 Q 372.746 62.205 373.026 63.192 A 27.239 27.239 0 0 0 373.6 65 Q 374.379 67.123 375.257 68.595 A 11.636 11.636 0 0 0 376 69.7 L 367.1 73.3 A 15.356 15.356 0 0 1 365.553 71.48 A 18.957 18.957 0 0 1 364.7 70.2 Q 363.8 68.6 363 66.35 A 16.077 16.077 0 0 1 362.383 64.059 Q 362.158 62.914 362.046 61.61 A 28.401 28.401 0 0 1 362 61 A 22.941 22.941 0 0 1 360.437 65.085 Q 358.894 68.144 356.55 70.05 Q 353.239 72.743 347.864 73.058 A 24.984 24.984 0 0 1 346.4 73.1 A 21.237 21.237 0 0 1 342.397 72.741 A 15.624 15.624 0 0 1 338.25 71.35 Q 334.8 69.6 332.5 66.35 A 20.265 20.265 0 0 1 330.192 62.015 A 26.556 26.556 0 0 1 329.1 58.5 A 39.285 39.285 0 0 1 328.211 53.009 A 50.754 50.754 0 0 1 328 48.3 A 32.568 32.568 0 0 1 328.754 41.185 A 28.253 28.253 0 0 1 329.75 37.75 A 26.204 26.204 0 0 1 332.734 31.842 A 23.158 23.158 0 0 1 334.65 29.4 Q 337.8 25.9 342.2 23.9 A 22.525 22.525 0 0 1 349.944 21.97 A 26.829 26.829 0 0 1 351.9 21.9 Q 354.9 21.9 358.15 22.35 Q 361.4 22.8 364.2 23.3 Q 366.344 23.683 367.989 24.036 A 64.924 64.924 0 0 1 368.95 24.25 A 208.364 208.364 0 0 1 369.623 24.406 Q 370.777 24.677 371.115 24.774 A 2.236 2.236 0 0 1 371.2 24.8 Z M 228.5 45.1 L 228.5 72.5 L 217.1 72.5 L 217.1 47.3 A 74.622 74.622 0 0 0 216.989 43.095 Q 216.878 41.132 216.656 39.44 A 34.392 34.392 0 0 0 216.3 37.25 A 70.443 70.443 0 0 0 215.738 34.649 Q 215.464 33.495 215.18 32.508 A 29.383 29.383 0 0 0 214.6 30.7 Q 213.5 27.8 212.2 26 L 221.2 22.4 A 20.668 20.668 0 0 1 222.007 23.458 Q 222.538 24.2 223.1 25.1 A 25.213 25.213 0 0 1 223.85 26.522 Q 224.169 27.174 224.487 27.904 A 41.886 41.886 0 0 1 224.7 28.4 A 18.569 18.569 0 0 1 225.384 30.335 Q 225.68 31.334 225.915 32.473 A 31.885 31.885 0 0 1 226 32.9 Q 228 27.1 231.8 24.55 Q 235.6 22 240.4 22 A 17.021 17.021 0 0 1 243.355 22.248 A 14.653 14.653 0 0 1 244.7 22.55 Q 246.676 23.093 246.602 23.1 A 0.024 0.024 0 0 1 246.6 23.1 L 243.4 34.2 A 0.012 0.012 0 0 0 243.406 34.199 Q 243.439 34.178 242.534 33.776 A 75.649 75.649 0 0 0 242.25 33.65 Q 241 33.1 238.5 33.1 A 7.662 7.662 0 0 0 235.744 33.628 A 9.408 9.408 0 0 0 234.9 34 Q 233.1 34.9 231.7 36.45 A 11.955 11.955 0 0 0 230.012 38.887 A 14.735 14.735 0 0 0 229.4 40.2 A 12.074 12.074 0 0 0 228.588 43.461 A 14.907 14.907 0 0 0 228.5 45.1 Z M 472.373 22.099 A 30.607 30.607 0 0 0 466.1 21.5 A 27.457 27.457 0 0 0 461.7 21.838 A 20.616 20.616 0 0 0 456.1 23.55 Q 451.8 25.6 448.95 29.15 Q 446.1 32.7 444.7 37.55 A 34.018 34.018 0 0 0 443.84 41.347 A 40.7 40.7 0 0 0 443.3 48.1 A 48.31 48.31 0 0 0 443.575 53.368 A 36.045 36.045 0 0 0 444.55 58.7 A 24.544 24.544 0 0 0 445.473 61.501 A 19.669 19.669 0 0 0 448.5 66.7 Q 451.2 70 455.35 71.75 Q 459.5 73.5 465.2 73.5 A 27.457 27.457 0 0 0 469.6 73.162 A 20.616 20.616 0 0 0 475.2 71.45 Q 479.5 69.4 482.35 65.85 Q 485.2 62.3 486.6 57.45 A 34.036 34.036 0 0 0 487.368 54.186 A 39.542 39.542 0 0 0 488 47 A 49.079 49.079 0 0 0 487.863 43.27 Q 487.561 39.316 486.596 36.012 A 23.31 23.31 0 0 0 482.8 28.3 Q 479.144 23.519 472.373 22.099 Z M 420.3 61.6 L 420.3 22.7 L 431.7 22.7 L 431.7 60.6 A 11.822 11.822 0 0 0 431.741 61.626 Q 431.87 63.094 432.4 63.7 Q 433.047 64.439 434.291 64.495 A 4.629 4.629 0 0 0 434.5 64.5 L 435.35 64.5 Q 435.8 64.5 436.2 64.4 Q 436.572 64.4 437.03 64.314 A 6.465 6.465 0 0 0 437.1 64.3 L 438.3 71.5 A 5.601 5.601 0 0 1 437.719 71.786 Q 437.388 71.927 436.996 72.053 A 11.511 11.511 0 0 1 436.5 72.2 A 9.529 9.529 0 0 1 435.762 72.411 Q 435.355 72.511 434.882 72.596 A 20.084 20.084 0 0 1 434.25 72.7 A 17.747 17.747 0 0 1 432.815 72.85 Q 432.052 72.9 431.2 72.9 Q 425.9 72.9 423.1 69.75 A 10.875 10.875 0 0 1 420.547 64.406 A 15.272 15.272 0 0 1 420.3 61.6 Z M 83.7 45.4 L 83.7 31 Q 82.934 30.77 81.583 30.482 A 70.983 70.983 0 0 0 80.7 30.3 A 22.734 22.734 0 0 0 79.027 30.027 Q 78.16 29.92 77.384 29.903 A 13.228 13.228 0 0 0 77.1 29.9 Q 73.3 29.9 70.85 31.2 Q 68.4 32.5 66.9 34.8 A 13.553 13.553 0 0 0 65.436 37.849 A 17.726 17.726 0 0 0 64.8 40.3 A 34.622 34.622 0 0 0 64.299 44.312 A 43.722 43.722 0 0 0 64.2 47.3 Q 64.2 50.8 64.4 54 Q 64.6 57.2 65.45 59.7 A 11.127 11.127 0 0 0 66.337 61.687 A 8.066 8.066 0 0 0 67.9 63.65 A 5.41 5.41 0 0 0 70.33 64.896 Q 71.188 65.1 72.2 65.1 A 7.042 7.042 0 0 0 76.403 63.704 A 8.932 8.932 0 0 0 76.8 63.4 Q 78.9 61.7 80.45 58.95 A 22.379 22.379 0 0 0 82.114 55.2 A 28.013 28.013 0 0 0 82.85 52.65 Q 83.7 49.1 83.7 45.4 Z M 359.8 45.4 L 359.8 31 Q 359.034 30.77 357.683 30.482 A 70.983 70.983 0 0 0 356.8 30.3 A 22.734 22.734 0 0 0 355.127 30.027 Q 354.26 29.92 353.484 29.903 A 13.228 13.228 0 0 0 353.2 29.9 Q 349.4 29.9 346.95 31.2 Q 344.5 32.5 343 34.8 A 13.553 13.553 0 0 0 341.536 37.849 A 17.726 17.726 0 0 0 340.9 40.3 A 34.622 34.622 0 0 0 340.399 44.312 A 43.722 43.722 0 0 0 340.3 47.3 Q 340.3 50.8 340.5 54 Q 340.7 57.2 341.55 59.7 A 11.127 11.127 0 0 0 342.437 61.687 A 8.066 8.066 0 0 0 344 63.65 A 5.41 5.41 0 0 0 346.43 64.896 Q 347.288 65.1 348.3 65.1 A 7.042 7.042 0 0 0 352.503 63.704 A 8.932 8.932 0 0 0 352.9 63.4 Q 355 61.7 356.55 58.95 A 22.379 22.379 0 0 0 358.214 55.2 A 28.013 28.013 0 0 0 358.95 52.65 Q 359.8 49.1 359.8 45.4 Z M 174.4 49.6 L 174.4 64 Q 175.166 64.23 176.517 64.518 A 70.983 70.983 0 0 0 177.4 64.7 A 23.764 23.764 0 0 0 178.942 64.959 Q 179.676 65.056 180.326 65.086 A 12.336 12.336 0 0 0 180.9 65.1 A 18.343 18.343 0 0 0 183.567 64.917 Q 184.986 64.708 186.167 64.261 A 9.652 9.652 0 0 0 187.2 63.8 Q 189.7 62.5 191.2 60.2 A 13.553 13.553 0 0 0 192.664 57.151 A 17.726 17.726 0 0 0 193.3 54.7 A 34.622 34.622 0 0 0 193.801 50.688 A 43.722 43.722 0 0 0 193.9 47.7 Q 193.9 44.2 193.7 41 Q 193.5 37.8 192.65 35.3 A 11.127 11.127 0 0 0 191.763 33.313 A 8.066 8.066 0 0 0 190.2 31.35 A 5.41 5.41 0 0 0 187.77 30.104 Q 186.913 29.9 185.9 29.9 A 7.042 7.042 0 0 0 181.697 31.296 A 8.932 8.932 0 0 0 181.3 31.6 A 13.62 13.62 0 0 0 179 34.007 A 17.777 17.777 0 0 0 177.65 36.1 A 23.877 23.877 0 0 0 175.85 40.281 A 28.745 28.745 0 0 0 175.25 42.4 Q 174.4 45.9 174.4 49.6 Z M 137.3 45.4 L 137.3 31 Q 136.534 30.77 135.183 30.482 A 70.983 70.983 0 0 0 134.3 30.3 A 22.734 22.734 0 0 0 132.627 30.027 Q 131.76 29.92 130.984 29.903 A 13.228 13.228 0 0 0 130.7 29.9 Q 126.9 29.9 124.45 31.2 Q 122 32.5 120.5 34.8 A 13.553 13.553 0 0 0 119.036 37.849 A 17.726 17.726 0 0 0 118.4 40.3 A 34.622 34.622 0 0 0 117.899 44.312 A 43.722 43.722 0 0 0 117.8 47.3 Q 117.8 50.8 118 54 Q 118.2 57.2 119.05 59.65 A 10.913 10.913 0 0 0 119.974 61.665 A 8.154 8.154 0 0 0 121.5 63.55 A 5.41 5.41 0 0 0 123.93 64.796 Q 124.788 65 125.8 65 A 7.042 7.042 0 0 0 130.003 63.604 A 8.932 8.932 0 0 0 130.4 63.3 Q 132.5 61.6 134.05 58.85 A 22.777 22.777 0 0 0 135.783 54.918 A 27.972 27.972 0 0 0 136.45 52.6 Q 137.3 49.1 137.3 45.4 Z M 465.1 29.9 A 10.62 10.62 0 0 0 463.073 30.083 Q 461.849 30.321 460.875 30.869 A 6.222 6.222 0 0 0 460.35 31.2 A 8.181 8.181 0 0 0 458.064 33.676 A 10.419 10.419 0 0 0 457.45 34.85 A 16.785 16.785 0 0 0 456.523 37.551 A 23.096 23.096 0 0 0 456 40.35 Q 455.6 43.5 455.6 47.1 A 54.473 54.473 0 0 0 455.813 51.998 A 46.546 46.546 0 0 0 456.05 54.1 A 22.054 22.054 0 0 0 456.662 57.097 A 16.272 16.272 0 0 0 457.7 59.85 A 10.403 10.403 0 0 0 459.398 62.361 A 9.106 9.106 0 0 0 460.95 63.7 A 7.654 7.654 0 0 0 463.494 64.803 Q 464.533 65.054 465.745 65.093 A 14.074 14.074 0 0 0 466.2 65.1 A 10.62 10.62 0 0 0 468.227 64.917 Q 469.451 64.679 470.425 64.131 A 6.222 6.222 0 0 0 470.95 63.8 A 8.181 8.181 0 0 0 473.236 61.324 A 10.419 10.419 0 0 0 473.85 60.15 A 17.023 17.023 0 0 0 474.804 57.355 A 22.887 22.887 0 0 0 475.3 54.7 A 48.384 48.384 0 0 0 475.641 50.683 A 59.808 59.808 0 0 0 475.7 48 A 54.473 54.473 0 0 0 475.487 43.102 A 46.546 46.546 0 0 0 475.25 41 Q 474.8 37.7 473.6 35.2 A 10.539 10.539 0 0 0 472.033 32.795 A 8.933 8.933 0 0 0 470.35 31.3 A 7.654 7.654 0 0 0 467.806 30.197 Q 466.767 29.946 465.555 29.907 A 14.074 14.074 0 0 0 465.1 29.9 Z M 11.9 13.1 L 11.9 34.5 L 19.6 34.5 Q 23.475 34.5 26.129 33.303 A 9.462 9.462 0 0 0 28.25 32 A 8.031 8.031 0 0 0 30.987 27.493 A 12.565 12.565 0 0 0 31.3 24.6 Q 31.3 22.4 30.7 20.3 Q 30.1 18.2 28.65 16.6 A 8.886 8.886 0 0 0 26.639 14.967 A 12.144 12.144 0 0 0 24.75 14.05 A 12.607 12.607 0 0 0 22.553 13.435 Q 20.797 13.1 18.6 13.1 L 11.9 13.1 Z M 265.015 30.734 A 7.287 7.287 0 0 0 264.85 30.85 Q 262.7 32.4 261.4 34.85 A 17.888 17.888 0 0 0 259.919 38.682 A 21.414 21.414 0 0 0 259.55 40.35 Q 259 43.4 258.9 46.5 Q 262.669 46.343 265.544 45.662 A 21.973 21.973 0 0 0 267.05 45.25 A 24.17 24.17 0 0 0 269.543 44.324 Q 270.766 43.787 271.759 43.157 A 12.764 12.764 0 0 0 272.5 42.65 A 12.893 12.893 0 0 0 274.016 41.349 Q 274.804 40.553 275.324 39.698 A 7.511 7.511 0 0 0 275.55 39.3 A 8.441 8.441 0 0 0 276.291 37.387 A 7.004 7.004 0 0 0 276.5 35.7 A 8.037 8.037 0 0 0 276.261 33.687 A 5.788 5.788 0 0 0 274.8 31.05 A 5.683 5.683 0 0 0 271.412 29.375 A 7.972 7.972 0 0 0 270.3 29.3 Q 267.126 29.3 265.015 30.734 Z M 426.2 0.5 Q 429.4 0.5 431.1 2.4 A 6.558 6.558 0 0 1 432.666 5.7 A 9.142 9.142 0 0 1 432.8 7.3 Q 432.8 10.3 431.05 12.3 A 5.598 5.598 0 0 1 428.218 14.019 Q 427.305 14.265 426.215 14.296 A 11.174 11.174 0 0 1 425.9 14.3 A 8.415 8.415 0 0 1 423.871 14.07 A 5.651 5.651 0 0 1 420.95 12.35 A 6.797 6.797 0 0 1 419.205 7.904 A 8.743 8.743 0 0 1 419.2 7.6 A 9.007 9.007 0 0 1 419.489 5.263 A 6.811 6.811 0 0 1 420.95 2.5 A 5.55 5.55 0 0 1 423.645 0.83 Q 424.566 0.562 425.677 0.512 A 11.572 11.572 0 0 1 426.2 0.5 Z" vector-effect="non-scaling-stroke"/></g></svg>